<svg id="svg" version="1.1" xmlns="http://www.w3.org/2000/svg" xmlns:xlink="http://www.w3.org/1999/xlink" width="400" height="400" viewBox="0, 0, 400,400"><g id="svgg"><path id="path0" d="M81.250 135.780 C 48.306 139.684,26.273 170.412,34.353 201.185 C 35.277 204.706,35.145 204.633,37.383 202.866 C 38.427 202.042,40.121 200.928,41.147 200.391 C 42.765 199.544,42.986 199.284,42.811 198.438 C 35.410 162.695,71.806 133.343,104.102 149.007 C 107.718 150.762,112.889 154.377,115.146 156.731 L 116.424 158.064 114.072 159.891 C 109.692 163.292,109.986 163.647,122.034 169.489 C 132.148 174.394,133.999 174.774,133.980 171.945 C 133.956 168.484,131.959 150.547,131.554 150.165 C 130.354 149.032,129.423 149.175,126.869 150.888 L 124.347 152.579 121.342 149.745 C 110.972 139.962,94.468 134.213,81.250 135.780 M83.398 150.650 C 67.080 151.704,53.188 163.479,48.759 180.010 C 47.444 184.918,47.731 197.276,49.160 197.263 C 49.300 197.262,50.045 197.086,50.817 196.872 L 52.220 196.482 51.914 194.628 C 51.173 190.124,51.646 184.336,53.184 179.102 C 54.475 174.711,55.593 174.257,55.976 177.970 C 56.547 183.505,65.536 189.877,68.537 186.875 C 70.147 185.266,67.998 182.036,65.310 182.025 C 63.139 182.016,62.740 181.608,63.001 179.663 C 63.379 176.842,64.326 175.977,67.034 175.977 L 69.336 175.977 69.538 177.930 C 69.893 181.354,71.767 182.169,72.908 179.395 C 75.630 172.777,77.888 169.897,80.959 169.124 C 82.274 168.793,82.813 168.461,82.813 167.983 C 82.813 166.618,84.265 165.798,85.664 166.373 C 91.066 168.592,91.827 165.979,87.290 160.789 C 83.763 156.755,82.167 156.446,79.244 159.235 C 77.508 160.891,74.465 159.778,75.623 157.910 C 77.650 154.642,89.637 153.660,90.351 156.704 C 91.434 161.323,97.293 164.100,99.952 161.255 L 101.115 160.011 102.629 161.060 C 104.456 162.326,104.455 162.326,105.454 161.254 C 109.759 156.633,95.668 149.858,83.398 150.650 M296.232 158.565 C 292.683 160.729,294.421 166.403,298.633 166.403 C 300.245 166.403,302.110 165.178,302.713 163.725 C 304.351 159.769,299.973 156.284,296.232 158.565 M162.109 179.102 L 162.109 200.000 174.609 200.000 L 187.109 200.000 187.109 196.582 L 187.109 193.164 178.320 193.269 L 169.531 193.373 169.531 187.898 L 169.531 182.422 177.344 182.422 L 185.156 182.422 185.156 179.102 L 185.156 175.781 177.344 175.781 L 169.531 175.781 169.531 170.410 L 169.531 165.039 178.222 165.039 L 186.914 165.039 187.027 161.621 L 187.140 158.203 174.625 158.203 L 162.109 158.203 162.109 179.102 M259.375 179.078 L 259.375 200.000 263.086 200.000 L 266.797 200.000 266.797 192.188 L 266.797 184.375 269.701 184.375 L 272.605 184.375 277.353 192.188 L 282.102 200.000 286.168 200.000 C 288.405 200.000,290.234 199.929,290.234 199.842 C 290.234 199.755,288.027 196.132,285.329 191.791 C 282.631 187.451,280.478 183.874,280.544 183.844 C 291.501 178.822,292.187 164.350,281.701 159.434 C 279.517 158.410,279.380 158.397,269.434 158.277 L 259.375 158.155 259.375 179.078 M330.469 166.406 L 330.469 174.609 328.884 173.070 C 323.156 167.512,312.449 170.358,308.656 178.447 C 307.201 181.552,307.136 188.791,308.532 192.284 C 312.010 200.980,323.378 203.940,329.077 197.632 L 330.469 196.091 330.469 198.046 L 330.469 200.000 333.984 200.000 L 337.500 200.000 337.500 179.102 L 337.500 158.203 333.984 158.203 L 330.469 158.203 330.469 166.406 M278.481 165.438 C 282.563 167.828,282.709 173.779,278.757 176.734 C 277.813 177.439,277.007 177.555,272.239 177.666 L 266.797 177.793 266.797 171.078 L 266.797 164.363 271.979 164.514 C 276.255 164.639,277.393 164.801,278.481 165.438 M109.813 167.326 C 109.422 167.797,109.549 168.335,110.485 170.191 C 111.570 172.339,111.870 173.355,111.764 174.512 C 111.735 174.828,111.061 175.000,109.853 175.000 C 107.636 175.000,106.380 175.766,105.623 177.578 C 104.326 180.682,105.405 182.813,108.275 182.813 C 111.550 182.813,115.156 185.542,119.320 191.172 C 122.766 195.832,123.892 195.377,123.864 189.336 C 123.824 180.544,120.097 172.448,114.327 168.618 C 111.760 166.914,110.463 166.543,109.813 167.326 M200.886 171.076 C 190.962 174.648,187.985 189.116,195.634 196.600 C 202.842 203.651,215.257 201.696,219.348 192.866 C 220.456 190.475,220.669 190.782,217.248 189.834 C 213.706 188.853,214.047 188.779,212.773 190.796 C 208.385 197.741,198.320 194.092,198.287 185.543 C 198.250 176.245,208.894 173.309,213.477 181.353 C 213.802 181.925,214.094 181.977,215.234 181.669 C 215.986 181.466,217.349 181.106,218.262 180.869 C 220.208 180.364,220.284 179.986,218.967 177.386 C 215.986 171.504,207.717 168.618,200.886 171.076 M233.543 170.924 C 227.162 172.889,223.102 179.187,223.531 186.456 C 224.659 205.593,251.986 205.833,253.396 186.719 C 254.226 175.477,244.328 167.603,233.543 170.924 M351.847 171.237 C 340.124 176.169,339.835 194.476,351.398 199.678 C 357.488 202.417,366.043 200.411,369.736 195.378 C 371.554 192.902,371.505 192.787,368.186 191.719 L 365.278 190.783 363.902 192.201 C 359.570 196.665,351.300 194.632,349.980 188.779 L 349.692 187.500 360.783 187.500 L 371.875 187.500 371.875 185.371 C 371.875 174.181,361.781 167.057,351.847 171.237 M295.313 185.352 L 295.313 200.000 298.828 200.000 L 302.344 200.000 302.344 185.352 L 302.344 170.703 298.828 170.703 L 295.313 170.703 295.313 185.352 M360.758 176.906 C 362.391 177.648,364.453 179.744,364.453 180.662 C 364.453 180.950,364.560 181.464,364.690 181.804 C 364.901 182.354,364.109 182.422,357.464 182.422 C 352.593 182.422,350.000 182.282,350.000 182.019 C 350.000 177.924,356.353 174.905,360.758 176.906 M133.203 179.291 C 131.162 180.757,129.500 182.105,129.509 182.287 C 129.518 182.469,129.662 184.463,129.829 186.719 C 130.163 191.246,129.519 197.159,128.233 201.367 C 127.599 203.442,127.541 204.712,127.723 212.434 L 127.930 221.157 129.525 218.879 C 137.793 207.071,140.970 191.647,137.858 178.418 C 137.324 176.146,137.670 176.081,133.203 179.291 M241.321 177.169 C 248.641 180.227,248.108 192.126,240.560 194.158 C 235.173 195.609,230.469 191.595,230.469 185.547 C 230.469 179.019,235.834 174.877,241.321 177.169 M325.306 177.169 C 333.845 180.736,331.397 194.531,322.225 194.531 C 311.506 194.531,311.655 176.817,322.376 176.593 C 323.188 176.576,324.507 176.835,325.306 177.169 M80.672 185.964 C 75.568 186.817,72.931 188.310,62.685 196.149 C 59.829 198.334,58.792 198.879,56.112 199.608 C 40.324 203.901,36.341 207.416,36.332 217.064 C 36.325 224.102,38.389 226.563,44.298 226.563 L 47.228 226.563 48.407 228.275 C 53.105 235.104,61.877 234.991,66.262 228.044 L 67.197 226.563 80.962 226.577 L 94.727 226.591 95.812 228.305 C 96.410 229.248,97.692 230.545,98.661 231.188 C 100.689 232.531,100.775 232.421,96.670 233.712 C 92.482 235.028,88.095 235.619,83.594 235.472 L 79.883 235.352 80.015 233.503 C 80.255 230.154,77.274 230.688,63.574 236.453 C 61.650 237.263,61.650 238.342,63.574 240.158 C 73.441 249.476,77.344 251.309,77.344 246.625 C 77.344 244.550,77.401 244.531,83.567 244.531 C 97.157 244.531,109.409 240.065,118.746 231.708 L 120.891 229.788 117.186 229.720 C 112.994 229.644,112.432 229.369,113.300 227.818 C 113.858 226.822,114.097 226.746,117.281 226.554 C 123.788 226.162,124.687 224.539,124.527 213.477 C 124.389 203.924,124.129 203.161,119.843 199.742 C 118.344 198.546,116.298 196.492,115.297 195.177 C 110.667 189.100,107.428 186.726,102.721 185.963 C 99.782 185.486,83.527 185.487,80.672 185.964 M86.719 196.484 L 86.719 201.953 83.821 201.953 C 80.019 201.953,79.686 202.106,79.693 203.850 C 79.705 206.566,79.017 206.435,93.800 206.545 C 108.641 206.656,108.594 206.664,108.594 204.119 C 108.594 202.011,108.356 201.953,99.727 201.953 L 91.797 201.953 91.797 196.484 L 91.797 191.016 96.413 191.016 C 103.938 191.016,105.576 191.855,110.520 198.242 C 111.684 199.746,113.937 202.098,115.527 203.470 C 119.159 206.602,119.141 206.545,119.141 214.400 C 119.141 221.876,119.141 221.875,116.140 221.875 C 114.213 221.875,114.060 221.804,113.819 220.801 C 111.381 210.657,96.822 210.657,94.384 220.801 L 94.126 221.875 80.914 221.875 L 67.702 221.875 67.204 220.215 C 64.553 211.365,51.738 210.430,48.268 218.834 C 47.103 221.655,47.084 221.673,45.241 221.796 C 42.099 222.005,40.555 219.335,41.454 215.247 C 42.550 210.266,46.281 207.687,55.574 205.486 C 61.775 204.018,62.491 203.650,68.545 198.821 C 76.452 192.513,79.360 191.055,84.082 191.030 L 86.719 191.016 86.719 196.484 M295.463 211.501 C 295.046 212.585,295.491 213.477,296.447 213.477 C 297.679 213.477,298.377 212.392,297.683 211.556 C 297.042 210.783,295.750 210.751,295.463 211.501 M164.778 212.120 C 160.452 214.405,160.140 220.959,164.213 223.999 C 165.754 225.150,170.184 225.150,171.725 223.999 C 178.634 218.840,172.362 208.114,164.778 212.120 M248.047 218.164 L 248.047 225.000 249.023 225.000 L 250.000 225.000 250.000 218.164 L 250.000 211.328 249.023 211.328 L 248.047 211.328 248.047 218.164 M252.734 218.164 L 252.734 225.000 253.711 225.000 L 254.688 225.000 254.688 218.164 L 254.688 211.328 253.711 211.328 L 252.734 211.328 252.734 218.164 M279.607 218.164 L 279.722 225.000 280.681 225.000 L 281.641 225.000 281.641 218.164 L 281.641 211.328 280.566 211.328 L 279.492 211.327 279.607 218.164 M226.741 213.770 C 226.484 214.644,226.093 215.078,225.488 215.164 C 224.155 215.353,224.243 217.188,225.586 217.188 C 226.546 217.188,226.563 217.240,226.563 220.313 C 226.563 223.986,227.196 225.000,229.492 225.000 C 230.705 225.000,230.859 224.885,230.859 223.982 C 230.859 223.268,230.695 223.026,230.311 223.174 C 229.023 223.668,228.471 222.557,228.593 219.717 C 228.711 216.998,228.713 216.992,229.785 217.118 C 230.711 217.226,230.859 217.105,230.859 216.239 C 230.859 215.383,230.686 215.234,229.688 215.234 C 228.609 215.234,228.516 215.126,228.516 213.867 C 228.516 212.012,227.278 211.944,226.741 213.770 M170.943 214.564 C 173.434 216.847,173.108 221.015,170.325 222.454 C 167.888 223.715,165.012 222.866,163.920 220.564 C 161.548 215.565,166.975 210.928,170.943 214.564 M176.953 220.117 L 176.953 225.000 177.930 225.000 C 178.888 225.000,178.906 224.942,178.906 221.962 C 178.906 218.435,179.504 217.188,181.194 217.188 C 182.916 217.188,183.203 217.812,183.203 221.563 C 183.203 224.969,183.212 225.000,184.180 225.000 C 185.278 225.000,185.678 219.150,184.723 217.054 C 183.940 215.335,181.389 214.711,179.774 215.842 C 178.989 216.393,178.906 216.393,178.906 215.842 C 178.906 215.454,178.553 215.234,177.930 215.234 L 176.953 215.234 176.953 220.117 M192.578 221.875 L 192.578 228.516 193.555 228.516 C 194.489 228.516,194.531 228.413,194.531 226.150 L 194.531 223.784 195.399 224.392 C 198.115 226.294,201.948 223.839,201.952 220.195 C 201.955 216.453,198.144 213.920,195.399 215.842 C 194.614 216.393,194.531 216.393,194.531 215.842 C 194.531 215.454,194.178 215.234,193.555 215.234 L 192.578 215.234 192.578 221.875 M205.617 215.980 C 202.806 217.695,202.925 222.896,205.809 224.388 C 208.151 225.599,212.500 224.443,212.500 222.609 C 212.500 221.910,211.297 221.782,210.604 222.409 C 209.297 223.592,207.588 223.639,206.471 222.522 C 204.853 220.904,205.152 220.703,209.180 220.703 C 212.650 220.703,212.891 220.652,212.891 219.909 C 212.891 216.245,208.804 214.037,205.617 215.980 M214.844 218.975 C 214.844 224.146,217.197 226.514,220.226 224.392 C 221.011 223.842,221.094 223.842,221.094 224.392 C 221.094 224.780,221.447 225.000,222.070 225.000 L 223.047 225.000 223.047 220.117 L 223.047 215.234 222.070 215.234 C 221.109 215.234,221.094 215.285,221.094 218.385 C 221.094 222.268,220.735 223.047,218.945 223.047 C 217.156 223.047,216.797 222.268,216.797 218.385 C 216.797 215.285,216.781 215.234,215.820 215.234 C 214.847 215.234,214.844 215.245,214.844 218.975 M239.576 215.628 C 238.736 215.966,237.891 217.128,237.891 217.943 C 237.891 218.643,239.406 218.407,240.234 217.578 C 241.227 216.586,241.980 216.590,242.983 217.592 C 244.062 218.671,243.691 219.070,241.312 219.385 C 237.832 219.847,236.322 222.454,238.529 224.190 C 239.749 225.150,241.672 225.239,242.882 224.392 C 243.668 223.842,243.750 223.842,243.750 224.392 C 243.750 224.786,244.107 225.000,244.763 225.000 L 245.776 225.000 245.642 221.059 C 245.463 215.797,243.506 214.045,239.576 215.628 M258.884 215.923 C 256.269 217.544,256.133 221.893,258.631 223.995 C 260.586 225.640,264.089 225.233,265.417 223.206 C 266.293 221.870,264.889 221.529,263.312 222.696 C 261.860 223.768,259.853 223.371,259.099 221.862 L 258.618 220.898 262.317 220.787 C 265.977 220.676,266.016 220.665,266.016 219.693 C 266.016 216.172,261.949 214.023,258.884 215.923 M267.969 220.117 L 267.969 225.000 268.945 225.000 C 269.888 225.000,269.922 224.911,269.922 222.435 C 269.922 218.969,270.667 217.597,272.559 217.584 C 273.280 217.579,273.438 217.361,273.438 216.364 C 273.438 214.929,271.858 214.986,270.605 216.466 C 269.923 217.273,269.922 217.273,269.922 216.254 C 269.922 215.427,269.738 215.234,268.945 215.234 L 267.969 215.234 267.969 220.117 M286.523 215.607 C 284.083 216.616,282.972 219.860,284.188 222.424 C 285.770 225.756,291.092 225.908,292.767 222.669 C 294.988 218.374,290.930 213.784,286.523 215.607 M295.671 215.396 C 294.875 216.184,295.822 225.000,296.703 225.000 L 297.656 225.000 297.656 220.117 C 297.656 215.264,297.111 213.968,295.671 215.396 M300.000 220.117 L 300.000 225.000 300.977 225.000 C 301.928 225.000,301.953 224.927,301.959 222.168 C 301.966 218.767,302.531 217.431,304.037 217.257 C 305.911 217.040,306.250 217.695,306.250 221.532 L 306.250 225.000 307.475 225.000 L 308.700 225.000 308.507 221.305 C 308.222 215.850,306.095 213.758,303.093 215.978 C 301.964 216.812,301.953 216.813,301.953 216.027 C 301.953 215.442,301.698 215.234,300.977 215.234 L 300.000 215.234 300.000 220.117 M317.678 215.636 C 314.981 216.721,314.405 221.805,316.743 223.894 C 318.589 225.544,321.448 225.487,323.168 223.767 C 324.807 222.128,323.517 221.141,321.652 222.608 C 320.329 223.649,319.521 223.654,318.217 222.628 C 316.292 221.114,316.822 220.703,320.703 220.703 L 324.219 220.703 324.219 219.297 C 324.219 216.348,320.745 214.403,317.678 215.636 M326.172 220.091 L 326.172 225.000 327.344 225.000 L 328.516 225.000 328.516 221.708 C 328.516 218.152,328.963 217.182,330.594 217.193 C 332.337 217.206,332.610 217.745,332.754 221.470 C 332.888 224.936,332.908 225.000,333.865 225.000 L 334.839 225.000 334.705 221.059 C 334.530 215.935,332.282 213.680,329.469 215.808 C 328.530 216.518,328.095 216.557,328.223 215.918 C 328.278 215.643,327.850 215.376,327.246 215.306 L 326.172 215.182 326.172 220.091 M210.076 217.871 L 211.133 218.945 209.668 219.067 C 208.862 219.133,207.544 219.133,206.738 219.067 L 205.273 218.945 206.330 217.871 C 206.911 217.280,207.754 216.797,208.203 216.797 C 208.652 216.797,209.495 217.280,210.076 217.871 M263.033 217.606 C 264.597 218.837,264.298 219.141,261.523 219.141 C 258.751 219.141,258.196 218.565,259.853 217.405 C 261.017 216.589,261.803 216.639,263.033 217.606 M321.484 217.578 C 322.754 218.848,322.425 219.141,319.727 219.141 C 317.241 219.141,316.905 218.989,317.486 218.131 C 318.425 216.743,320.380 216.473,321.484 217.578 M199.219 217.969 C 201.813 220.563,198.032 224.922,195.318 222.465 C 194.328 221.570,194.247 218.931,195.178 217.902 C 196.052 216.935,198.221 216.971,199.219 217.969 M290.625 217.969 C 292.082 219.425,291.467 222.355,289.553 223.083 C 286.715 224.162,284.424 220.674,286.356 218.217 C 287.371 216.927,289.462 216.806,290.625 217.969 M107.858 219.485 C 111.560 223.187,108.151 229.478,103.170 228.137 C 97.212 226.533,98.445 217.976,104.636 217.970 C 106.098 217.969,106.559 218.186,107.858 219.485 M59.388 219.343 C 63.433 221.435,61.724 228.519,57.175 228.514 C 52.954 228.510,50.607 223.798,53.189 220.515 C 54.601 218.720,57.225 218.224,59.388 219.343 M243.576 221.387 C 243.120 223.275,240.916 224.144,239.848 222.857 C 238.890 221.703,240.270 220.757,243.499 220.354 C 243.684 220.331,243.718 220.796,243.576 221.387 M215.188 233.898 C 214.840 233.966,214.395 234.585,214.198 235.273 C 213.955 236.125,213.565 236.563,212.975 236.648 C 211.699 236.832,211.798 238.281,213.086 238.281 C 214.050 238.281,214.063 238.322,214.063 241.574 C 214.063 245.522,215.407 247.251,217.773 246.343 C 218.824 245.940,218.476 244.597,217.285 244.460 C 216.228 244.338,216.209 244.289,216.097 241.309 L 215.983 238.281 217.171 238.281 C 218.099 238.281,218.359 238.110,218.359 237.500 C 218.359 236.896,218.099 236.719,217.210 236.719 C 216.162 236.719,216.050 236.588,215.940 235.246 C 215.850 234.134,215.665 233.804,215.188 233.898 M221.697 235.003 C 221.516 235.973,221.197 236.385,220.491 236.563 C 219.159 236.897,219.172 238.281,220.508 238.281 C 221.471 238.281,221.484 238.325,221.484 241.527 C 221.484 245.425,221.889 246.167,224.053 246.238 C 226.028 246.304,226.647 244.682,224.731 244.462 C 223.644 244.337,223.632 244.305,223.519 241.309 L 223.405 238.281 224.593 238.281 C 225.521 238.281,225.781 238.110,225.781 237.500 C 225.781 236.892,225.521 236.719,224.609 236.719 C 223.538 236.719,223.438 236.605,223.438 235.397 C 223.438 233.457,222.047 233.142,221.697 235.003 M250.370 233.893 C 250.036 233.958,249.597 234.577,249.393 235.268 C 249.140 236.129,248.747 236.563,248.145 236.648 C 246.857 236.831,246.944 238.281,248.242 238.281 C 249.203 238.281,249.219 238.332,249.219 241.424 C 249.219 245.069,250.181 246.651,252.254 246.412 C 253.731 246.242,254.053 244.531,252.608 244.531 C 251.403 244.531,251.172 243.929,251.172 240.788 L 251.172 238.281 252.344 238.281 C 253.255 238.281,253.516 238.108,253.516 237.500 C 253.516 236.896,253.255 236.719,252.366 236.719 C 251.319 236.719,251.206 236.588,251.097 235.246 C 251.008 234.161,250.817 233.805,250.370 233.893 M314.823 233.893 C 314.489 233.958,314.050 234.577,313.846 235.268 C 313.593 236.129,313.200 236.563,312.598 236.648 C 311.310 236.831,311.397 238.281,312.695 238.281 C 313.656 238.281,313.672 238.332,313.672 241.424 C 313.672 245.069,314.634 246.651,316.707 246.412 C 318.184 246.242,318.506 244.531,317.061 244.531 C 315.856 244.531,315.625 243.929,315.625 240.788 L 315.625 238.281 316.797 238.281 C 317.708 238.281,317.969 238.108,317.969 237.500 C 317.969 236.896,317.708 236.719,316.819 236.719 C 315.772 236.719,315.659 236.588,315.550 235.246 C 315.461 234.161,315.270 233.805,314.823 233.893 M229.803 236.761 C 228.700 237.079,227.344 238.372,227.344 239.104 C 227.344 239.804,229.088 239.759,229.587 239.045 C 230.611 237.584,233.670 238.454,233.064 240.034 C 232.930 240.384,232.348 240.625,231.640 240.625 C 227.657 240.625,225.747 243.609,228.396 245.693 C 229.581 246.625,230.651 246.690,232.129 245.919 C 232.720 245.611,233.203 245.524,233.203 245.726 C 233.203 245.928,233.643 246.094,234.180 246.094 C 235.153 246.094,235.156 246.082,235.156 242.365 C 235.156 238.479,234.380 236.719,232.667 236.719 C 232.352 236.719,231.861 236.647,231.575 236.559 C 231.289 236.471,230.491 236.562,229.803 236.761 M262.807 236.644 C 262.206 236.714,261.302 237.297,260.718 237.990 L 259.690 239.213 260.564 239.536 C 261.234 239.784,261.568 239.675,261.992 239.070 C 262.942 237.714,265.850 238.197,265.566 239.664 C 265.466 240.179,264.810 240.492,263.124 240.829 C 260.627 241.327,259.766 242.080,259.766 243.764 C 259.766 245.808,262.779 247.159,264.630 245.946 C 265.733 245.224,266.172 245.134,265.820 245.703 C 265.683 245.925,266.012 246.094,266.579 246.094 L 267.578 246.094 267.578 242.256 C 267.578 237.366,266.587 236.200,262.807 236.644 M298.053 236.757 C 292.949 237.849,293.767 245.658,299.057 246.351 C 301.544 246.677,304.966 243.830,302.775 243.257 C 302.303 243.133,301.735 243.344,301.329 243.792 C 300.320 244.907,298.286 244.764,297.299 243.509 C 296.126 242.017,296.533 241.797,300.465 241.797 L 304.008 241.797 303.774 240.353 C 303.350 237.740,300.838 236.161,298.053 236.757 M162.287 237.678 C 160.446 239.519,161.685 241.832,164.778 242.327 C 166.676 242.630,167.322 243.572,166.197 244.394 C 165.383 244.990,164.102 244.749,163.408 243.870 C 162.953 243.294,161.328 243.473,161.328 244.099 C 161.328 245.523,164.579 246.761,166.584 246.100 C 170.014 244.968,169.433 241.524,165.670 240.679 C 163.669 240.229,163.164 239.822,163.506 238.933 C 163.824 238.103,166.234 238.043,166.688 238.854 C 167.017 239.442,168.750 239.274,168.750 238.655 C 168.750 236.810,163.889 236.075,162.287 237.678 M172.176 237.487 C 169.231 239.803,169.959 244.653,173.470 246.107 C 175.879 247.105,180.495 244.811,178.707 243.504 C 178.074 243.041,177.869 243.073,177.147 243.751 C 176.069 244.764,174.060 244.763,173.047 243.750 C 171.441 242.145,171.954 241.797,175.924 241.797 L 179.583 241.797 179.281 240.148 C 178.703 236.985,174.714 235.491,172.176 237.487 M186.328 241.406 L 186.328 246.094 187.305 246.094 C 188.268 246.094,188.281 246.051,188.281 242.834 C 188.281 240.172,188.412 239.456,188.996 238.928 C 190.918 237.188,192.188 238.831,192.188 243.056 C 192.188 246.036,192.206 246.094,193.164 246.094 C 194.128 246.094,194.141 246.051,194.141 242.834 C 194.141 239.433,194.660 238.281,196.194 238.281 C 197.594 238.281,198.047 239.385,198.047 242.801 C 198.047 246.053,198.059 246.094,199.023 246.094 C 200.405 246.094,200.537 239.460,199.190 237.748 C 198.172 236.453,195.726 236.305,194.563 237.468 C 193.824 238.207,193.804 238.207,193.135 237.468 C 192.287 236.531,189.981 236.473,188.996 237.365 C 188.331 237.967,188.281 237.967,188.281 237.365 C 188.281 236.936,187.953 236.719,187.305 236.719 L 186.328 236.719 186.328 241.406 M204.461 237.166 C 200.016 239.323,202.816 247.144,207.747 246.344 C 209.804 246.010,211.748 244.002,210.606 243.391 C 209.931 243.030,209.642 243.092,208.993 243.741 C 207.469 245.266,204.297 244.394,204.297 242.450 C 204.297 241.888,204.788 241.797,207.813 241.797 C 211.326 241.797,211.328 241.796,211.328 240.795 C 211.328 237.628,207.585 235.650,204.461 237.166 M237.500 241.406 L 237.500 246.094 238.574 246.092 L 239.648 246.090 239.652 242.930 C 239.655 240.085,239.747 239.695,240.574 239.025 C 242.743 237.269,243.703 238.358,243.788 242.676 L 243.856 246.094 244.969 246.094 L 246.082 246.094 245.970 242.393 C 245.818 237.387,243.009 234.781,240.485 237.305 C 240.163 237.627,239.780 237.891,239.635 237.891 C 239.489 237.891,239.471 237.627,239.594 237.305 C 239.763 236.865,239.530 236.719,238.660 236.719 L 237.500 236.719 237.500 241.406 M270.313 240.377 C 270.313 245.526,272.171 247.564,275.362 245.913 C 276.039 245.563,276.563 245.467,276.563 245.693 C 276.563 245.913,277.002 246.094,277.539 246.094 L 278.516 246.094 278.516 241.406 L 278.516 236.719 277.539 236.719 C 276.581 236.719,276.563 236.777,276.563 239.757 C 276.563 243.331,275.971 244.531,274.210 244.531 C 272.647 244.531,272.266 243.617,272.266 239.869 C 272.266 236.769,272.250 236.719,271.289 236.719 C 270.317 236.719,270.313 236.735,270.313 240.377 M284.766 236.886 C 284.766 237.007,285.579 239.137,286.573 241.621 C 288.639 246.785,290.107 247.702,291.231 244.531 C 291.498 243.779,292.257 241.714,292.919 239.941 L 294.121 236.719 293.039 236.719 C 292.027 236.719,291.888 236.932,290.877 240.039 C 289.551 244.110,289.533 244.111,288.084 240.135 C 287.035 237.258,286.795 236.901,285.838 236.790 C 285.248 236.722,284.766 236.766,284.766 236.886 M305.859 241.406 L 305.859 246.094 306.934 246.095 C 308.003 246.095,308.007 246.083,307.900 243.653 C 307.762 240.547,308.360 239.301,310.068 239.135 C 311.174 239.028,311.328 238.873,311.328 237.866 C 311.328 236.460,310.366 236.329,308.842 237.528 L 307.813 238.338 307.813 237.528 C 307.813 236.925,307.563 236.719,306.836 236.719 L 305.859 236.719 305.859 241.406 M176.730 238.895 C 177.974 240.139,177.495 240.625,175.023 240.625 C 172.394 240.625,171.882 240.227,173.033 239.077 C 173.980 238.130,175.872 238.037,176.730 238.895 M208.767 239.149 C 209.726 240.518,209.535 240.658,206.836 240.558 C 204.190 240.460,203.862 240.190,204.943 238.996 C 205.872 237.969,208.000 238.055,208.767 239.149 M301.186 239.077 C 302.336 240.227,301.825 240.625,299.196 240.625 C 296.729 240.625,296.366 240.272,297.521 238.996 C 298.379 238.048,300.198 238.088,301.186 239.077 M233.131 242.868 C 232.919 244.710,229.744 245.480,229.116 243.842 C 228.807 243.037,229.323 242.563,230.921 242.186 C 233.114 241.667,233.265 241.714,233.131 242.868 M265.625 242.726 C 265.625 244.315,263.574 245.319,262.284 244.361 C 260.933 243.357,262.349 242.107,265.137 241.843 C 265.405 241.818,265.625 242.215,265.625 242.726 " stroke="none" fill="#074738" fill-rule="evenodd"></path><path id="path1" d="M0.000 200.000 L 0.000 400.000 200.000 400.000 L 400.000 400.000 400.000 200.000 L 400.000 0.000 200.000 0.000 L 0.000 0.000 0.000 200.000 M97.266 136.852 C 106.668 139.059,114.597 143.255,121.097 149.464 C 124.646 152.855,124.043 152.716,126.805 150.781 C 131.584 147.434,132.008 148.151,133.184 161.564 C 134.509 176.683,135.253 176.238,120.737 169.010 C 110.139 163.732,109.541 162.887,114.125 159.661 L 116.475 158.008 114.780 156.491 C 97.279 140.823,72.953 140.963,55.928 156.829 C 45.447 166.596,39.998 182.592,42.567 196.049 C 43.190 199.312,43.133 199.512,41.309 200.424 C 40.396 200.880,38.652 202.027,37.433 202.972 L 35.218 204.691 34.805 203.420 C 32.954 197.718,32.327 188.000,33.358 180.998 C 37.845 150.534,67.699 129.912,97.266 136.852 M94.336 151.541 C 98.159 152.533,103.270 154.934,104.980 156.542 C 107.770 159.164,105.675 163.628,102.734 161.328 C 101.411 160.293,100.769 160.355,99.763 161.616 C 97.491 164.465,90.234 160.458,90.234 156.355 C 90.234 153.736,76.686 155.282,75.635 158.022 C 74.825 160.132,77.386 160.781,79.433 158.984 C 82.363 156.412,84.215 156.857,87.609 160.949 C 91.691 165.869,90.786 168.684,85.794 166.598 C 84.122 165.899,82.547 166.908,83.014 168.379 C 83.219 169.025,83.067 169.141,82.019 169.141 C 78.922 169.141,77.092 170.970,74.023 177.132 C 72.835 179.519,71.807 181.103,71.397 181.179 C 70.433 181.357,69.069 179.007,69.357 177.664 C 69.628 176.401,68.730 175.781,66.627 175.781 C 63.076 175.781,61.457 181.293,64.874 181.751 C 67.935 182.162,69.780 184.419,68.804 186.560 C 67.577 189.254,58.906 185.578,56.741 181.445 C 56.404 180.801,56.023 179.309,55.896 178.130 C 55.410 173.637,53.843 175.784,52.337 183.008 C 51.772 185.713,51.623 191.876,52.052 194.735 L 52.347 196.697 50.616 197.098 L 48.886 197.500 48.369 195.722 C 47.403 192.405,47.741 182.846,48.966 178.796 C 55.036 158.735,75.253 146.589,94.336 151.541 M301.438 158.558 C 304.792 161.004,302.893 166.406,298.678 166.406 C 296.187 166.406,294.534 164.935,294.256 162.469 C 293.828 158.676,298.277 156.253,301.438 158.558 M187.109 161.523 L 187.109 165.234 178.320 165.234 L 169.531 165.234 169.531 170.410 L 169.530 175.586 177.343 175.473 L 185.156 175.359 185.156 178.891 L 185.156 182.422 177.344 182.422 L 169.531 182.422 169.531 187.695 L 169.531 192.969 178.320 192.969 L 187.109 192.969 187.109 196.484 L 187.109 200.000 174.609 200.000 L 162.109 200.000 162.109 178.906 L 162.109 157.813 174.609 157.813 L 187.109 157.813 187.109 161.523 M280.917 158.932 C 291.259 162.961,292.075 178.436,282.198 183.217 C 280.622 183.980,280.488 184.143,280.975 184.713 C 281.662 185.515,290.234 199.454,290.234 199.768 C 290.234 199.896,288.345 199.995,286.035 199.988 L 281.836 199.976 277.242 192.273 L 272.648 184.570 269.722 184.699 L 266.797 184.827 266.797 192.414 L 266.797 200.000 263.086 200.000 L 259.375 200.000 259.375 178.863 L 259.375 157.725 269.043 157.899 C 277.833 158.057,278.911 158.151,280.917 158.932 M337.796 179.004 L 337.897 200.000 334.183 200.000 L 330.469 200.000 330.469 198.214 L 330.469 196.429 329.199 197.769 C 320.220 207.251,304.902 196.437,307.422 182.395 C 309.370 171.545,322.784 165.879,329.202 173.195 L 330.273 174.416 330.153 166.652 C 330.002 156.960,329.644 157.758,334.075 157.895 L 337.695 158.008 337.796 179.004 M266.797 171.289 L 266.797 177.734 271.597 177.734 C 278.628 177.734,281.641 175.755,281.641 171.134 C 281.641 166.507,279.062 164.844,271.891 164.844 L 266.797 164.844 266.797 171.289 M113.004 167.636 C 119.327 170.861,123.901 179.901,123.987 189.340 C 124.044 195.566,122.636 196.197,119.366 191.410 C 115.855 186.272,111.328 182.840,108.039 182.821 C 105.902 182.809,105.078 181.947,105.080 179.725 C 105.082 176.415,106.364 175.149,109.958 174.909 C 112.037 174.770,112.141 173.999,110.532 170.673 C 108.681 166.846,109.495 165.846,113.004 167.636 M209.293 170.297 C 212.159 170.840,214.798 172.202,216.730 174.133 C 218.663 176.064,220.679 180.001,219.962 180.444 C 218.924 181.086,213.509 182.127,213.370 181.712 C 211.953 177.460,205.883 175.473,202.033 178.000 C 196.948 181.337,197.254 190.249,202.555 193.252 C 206.402 195.431,212.210 193.443,213.455 189.522 C 213.694 188.767,213.737 188.768,216.783 189.599 C 220.660 190.658,220.584 190.555,219.346 193.037 C 213.960 203.833,197.704 203.653,192.709 192.742 C 187.166 180.636,196.586 167.887,209.293 170.297 M244.958 171.337 C 256.666 176.591,256.194 195.397,244.237 200.034 C 233.730 204.109,223.633 197.009,223.633 185.547 C 223.633 173.791,234.416 166.606,244.958 171.337 M361.016 170.361 C 367.782 171.795,371.857 177.239,371.870 184.863 L 371.875 187.500 360.938 187.500 C 348.554 187.500,349.101 187.331,350.789 190.640 C 353.012 194.998,360.665 195.802,363.981 192.026 L 365.154 190.690 368.315 191.658 L 371.476 192.625 370.736 194.076 C 367.479 200.460,357.887 202.937,350.475 199.309 C 340.352 194.352,340.399 176.647,350.548 171.681 C 353.924 170.029,357.390 169.592,361.016 170.361 M302.344 185.352 L 302.344 200.000 298.633 200.000 L 294.922 200.000 294.922 185.352 L 294.922 170.703 298.633 170.703 L 302.344 170.703 302.344 185.352 M356.055 176.573 C 353.136 177.008,351.623 178.122,350.589 180.596 L 349.990 182.031 357.221 182.031 C 365.282 182.031,365.283 182.031,363.689 179.416 C 362.314 177.160,359.397 176.074,356.055 176.573 M138.189 179.131 C 140.957 191.602,137.273 208.607,129.560 218.966 L 127.539 221.680 127.344 213.086 C 127.162 205.072,127.205 204.308,127.992 201.757 C 129.312 197.475,129.803 193.064,129.615 187.168 L 129.444 181.816 133.179 179.208 C 137.566 176.145,137.526 176.146,138.189 179.131 M235.983 177.149 C 232.288 178.301,230.197 181.932,230.568 186.553 C 231.386 196.739,245.156 196.899,246.360 186.735 C 247.146 180.101,241.939 175.291,235.983 177.149 M319.967 177.149 C 316.258 178.306,314.255 181.651,314.515 186.257 C 315.166 197.763,330.252 197.083,330.257 185.547 C 330.259 179.115,325.671 175.370,319.967 177.149 M106.335 186.789 C 108.988 188.032,111.897 190.649,114.510 194.141 C 115.555 195.537,117.843 197.910,119.595 199.414 C 124.308 203.460,124.388 203.682,124.540 213.086 C 124.729 224.886,123.479 226.912,115.984 226.944 C 114.086 226.952,113.739 227.075,113.301 227.892 C 112.483 229.421,113.035 229.688,117.015 229.688 C 121.357 229.688,121.359 229.693,118.239 232.274 C 108.089 240.670,97.243 244.616,84.112 244.691 L 77.794 244.727 77.541 246.415 C 77.054 249.663,75.194 250.417,72.767 248.351 C 62.423 239.545,61.197 238.219,62.363 237.105 C 63.140 236.362,77.371 230.859,78.514 230.859 C 79.581 230.859,80.272 231.996,80.273 233.751 L 80.273 235.352 84.961 235.306 C 89.989 235.257,92.561 234.847,97.410 233.324 L 100.484 232.358 99.363 231.779 C 97.879 231.013,96.157 229.357,95.463 228.027 L 94.902 226.953 80.938 226.953 L 66.975 226.953 66.215 228.364 C 62.548 235.172,52.258 235.029,48.173 228.112 C 47.583 227.115,47.333 227.034,44.346 226.877 C 38.201 226.555,36.133 224.169,36.133 217.403 C 36.133 208.697,40.515 203.778,50.781 200.961 C 59.697 198.515,59.518 198.593,63.557 195.429 C 72.066 188.766,73.444 187.896,77.539 186.599 C 80.581 185.635,80.773 185.624,92.773 185.685 L 104.102 185.742 106.335 186.789 M254.688 218.210 L 254.688 225.000 253.711 225.000 L 252.734 225.000 252.734 218.023 L 252.734 211.046 253.711 211.233 L 254.688 211.419 254.688 218.210 M297.852 212.305 C 297.852 213.337,297.717 213.477,296.722 213.477 C 295.301 213.477,294.547 212.446,295.302 211.536 C 296.223 210.427,297.852 210.918,297.852 212.305 M171.015 211.877 C 176.728 214.849,175.914 223.401,169.771 224.948 C 162.010 226.902,157.734 216.724,164.423 212.216 C 165.973 211.171,169.327 210.999,171.015 211.877 M250.391 218.164 L 250.391 225.000 249.219 225.000 L 248.047 225.000 248.047 218.164 L 248.047 211.328 249.219 211.328 L 250.391 211.328 250.391 218.164 M281.641 218.164 L 281.641 225.000 280.469 225.000 L 279.297 225.000 279.297 218.164 L 279.297 211.328 280.469 211.328 L 281.641 211.328 281.641 218.164 M228.906 213.867 C 228.906 215.065,229.027 215.234,229.883 215.234 C 230.664 215.234,230.859 215.430,230.859 216.211 C 230.859 217.016,230.671 217.187,229.785 217.187 L 228.711 217.186 228.839 220.116 C 228.966 223.000,228.985 223.047,230.011 223.047 C 230.849 223.047,231.066 223.240,231.111 224.024 C 231.162 224.914,231.028 225.000,229.579 225.000 C 227.037 225.000,226.563 224.284,226.563 220.447 C 226.563 217.231,226.550 217.188,225.586 217.188 C 224.261 217.188,224.152 215.355,225.465 215.164 C 226.057 215.078,226.422 214.647,226.648 213.770 C 227.147 211.836,228.906 211.912,228.906 213.867 M166.016 213.950 C 161.819 216.095,162.987 222.411,167.678 222.940 C 169.370 223.130,169.613 223.043,170.857 221.799 C 174.779 217.877,170.837 211.485,166.016 213.950 M178.906 215.842 C 178.906 216.393,178.989 216.393,179.774 215.842 C 183.067 213.536,185.540 216.247,185.545 222.168 L 185.547 225.000 184.375 225.000 L 183.203 225.000 183.203 221.708 C 183.203 217.483,182.062 216.130,179.860 217.743 C 179.197 218.228,179.113 218.719,179.195 221.649 L 179.289 225.000 178.121 225.000 L 176.953 225.000 176.953 220.117 L 176.953 215.234 177.930 215.234 C 178.553 215.234,178.906 215.454,178.906 215.842 M194.531 215.881 C 194.531 216.482,194.581 216.482,195.246 215.881 C 196.543 214.707,199.092 215.029,200.625 216.563 C 204.186 220.123,200.306 226.965,195.956 224.795 C 195.321 224.478,194.741 224.219,194.667 224.219 C 194.592 224.219,194.531 225.285,194.531 226.588 C 194.531 228.906,194.509 228.955,193.525 228.835 L 192.519 228.711 192.528 222.266 C 192.533 218.721,192.546 215.688,192.558 215.527 C 192.602 214.893,194.531 215.238,194.531 215.881 M211.346 216.309 C 212.208 217.079,212.611 217.853,212.771 219.043 L 212.993 220.703 209.243 220.703 C 205.842 220.703,205.515 220.767,205.731 221.387 C 206.331 223.113,208.889 223.625,210.326 222.308 C 211.451 221.277,213.142 221.846,212.503 223.041 C 210.903 226.032,205.683 225.773,203.987 222.619 C 201.454 217.906,207.414 212.795,211.346 216.309 M216.856 218.764 C 217.000 222.492,217.272 223.029,219.021 223.041 C 220.479 223.051,221.094 221.638,221.094 218.272 C 221.094 215.311,221.118 215.234,222.048 215.234 L 223.002 215.234 223.122 220.118 L 223.242 225.001 222.168 225.001 C 221.429 225.000,221.094 224.798,221.094 224.354 C 221.094 223.752,221.044 223.752,220.379 224.354 C 219.284 225.345,216.947 225.186,215.803 224.041 C 214.333 222.571,214.315 215.234,215.781 215.234 C 216.692 215.234,216.723 215.336,216.856 218.764 M244.692 216.436 C 246.205 218.235,246.258 225.000,244.759 225.000 C 244.240 225.000,243.754 224.817,243.680 224.593 C 243.594 224.338,243.073 224.422,242.278 224.818 C 239.084 226.412,235.863 222.766,238.379 220.405 C 238.862 219.952,240.137 219.434,241.211 219.254 C 242.786 218.991,243.164 218.778,243.164 218.155 C 243.164 216.964,240.264 216.793,239.958 217.965 C 239.821 218.488,239.532 218.714,239.175 218.577 C 238.863 218.457,238.359 218.359,238.054 218.359 C 237.181 218.359,237.402 217.616,238.642 216.376 C 240.330 214.688,243.245 214.717,244.692 216.436 M264.688 216.563 C 265.706 217.581,266.016 218.218,266.016 219.297 L 266.016 220.703 262.500 220.703 C 258.807 220.703,258.377 220.947,259.631 222.333 C 260.485 223.277,262.653 223.265,263.559 222.311 C 264.554 221.263,266.258 221.864,265.628 223.041 C 264.093 225.910,259.180 225.840,257.402 222.924 C 254.367 217.946,260.615 212.490,264.688 216.563 M270.096 216.081 L 269.828 216.928 270.904 216.081 C 272.561 214.778,273.438 214.954,273.438 216.589 C 273.438 217.636,273.304 217.893,272.849 217.718 C 271.228 217.096,270.313 218.600,270.313 221.884 L 270.313 225.000 269.141 225.000 L 267.969 225.000 267.969 220.117 L 267.969 215.234 269.167 215.234 C 270.218 215.234,270.332 215.338,270.096 216.081 M291.760 216.239 C 294.853 218.842,293.717 223.957,289.814 225.008 C 285.566 226.152,282.109 221.583,284.185 217.569 C 285.455 215.112,289.563 214.391,291.760 216.239 M297.656 220.117 L 297.656 225.000 296.484 225.000 L 295.313 225.000 295.313 220.117 L 295.313 215.234 296.484 215.234 L 297.656 215.234 297.656 220.117 M302.202 215.820 C 302.079 216.143,302.073 216.406,302.189 216.406 C 302.305 216.406,302.663 216.143,302.985 215.820 C 305.513 213.293,308.360 215.982,308.533 221.059 L 308.667 225.000 307.458 225.000 L 306.250 225.000 306.250 221.563 C 306.250 217.973,305.943 217.188,304.542 217.188 C 302.859 217.188,302.344 218.255,302.344 221.740 L 302.344 225.000 301.172 225.000 L 300.000 225.000 300.000 220.117 L 300.000 215.234 301.214 215.234 C 302.132 215.234,302.373 215.377,302.202 215.820 M323.085 216.448 C 323.709 217.115,324.219 218.067,324.219 218.564 C 324.219 219.061,324.325 219.745,324.456 220.085 C 324.662 220.622,324.202 220.703,320.940 220.703 C 316.995 220.703,316.820 220.786,317.796 222.179 C 318.629 223.368,321.192 223.401,322.011 222.232 C 322.570 221.433,324.219 221.709,324.219 222.602 C 324.219 225.318,318.360 225.920,316.257 223.421 C 312.321 218.743,318.928 211.997,323.085 216.448 M328.516 215.881 C 328.516 216.482,328.565 216.482,329.230 215.881 C 331.970 213.401,334.766 216.117,334.766 221.259 L 334.766 225.000 333.594 225.000 L 332.422 225.000 332.422 221.563 C 332.422 217.973,332.115 217.188,330.714 217.188 C 329.031 217.188,328.516 218.255,328.516 221.740 L 328.516 225.000 327.344 225.000 L 326.172 225.000 326.172 220.117 L 326.172 215.234 327.344 215.234 C 328.174 215.234,328.516 215.423,328.516 215.881 M195.313 217.969 C 194.369 218.912,194.285 220.959,195.139 222.179 C 196.042 223.467,198.130 223.365,199.221 221.979 C 201.379 219.235,197.760 215.522,195.313 217.969 M206.328 217.656 C 205.274 218.711,205.817 219.141,208.203 219.141 C 209.866 219.141,210.547 218.993,210.547 218.633 C 210.547 217.741,209.650 217.188,208.203 217.188 C 207.430 217.188,206.586 217.398,206.328 217.656 M259.598 217.801 C 258.542 218.857,258.909 219.141,261.328 219.141 C 263.715 219.141,264.258 218.711,263.203 217.656 C 262.535 216.988,260.323 217.077,259.598 217.801 M286.719 217.969 C 285.697 218.990,285.660 221.502,286.652 222.400 C 287.766 223.408,289.646 223.226,290.597 222.018 C 292.813 219.200,289.229 215.458,286.719 217.969 M317.786 218.066 L 317.168 218.945 319.567 219.063 C 322.348 219.199,322.651 219.042,321.682 217.971 C 320.687 216.872,318.589 216.923,317.786 218.066 M241.211 220.986 C 239.349 221.443,238.970 222.453,240.414 223.111 C 241.602 223.652,243.359 222.677,243.359 221.475 C 243.359 220.698,242.852 220.582,241.211 220.986 M216.090 235.059 C 216.198 236.371,216.323 236.522,217.285 236.508 C 218.149 236.496,218.359 236.668,218.359 237.387 C 218.359 238.120,218.148 238.281,217.188 238.281 L 216.016 238.281 216.016 240.968 C 216.016 243.775,216.567 244.853,217.768 244.392 C 218.214 244.221,218.359 244.450,218.359 245.325 C 218.359 246.375,218.238 246.484,217.079 246.484 C 214.548 246.484,214.063 245.719,214.063 241.729 L 214.063 238.190 213.086 238.377 C 211.786 238.625,211.697 237.087,212.978 236.518 C 213.460 236.305,214.007 235.567,214.207 234.863 C 214.734 233.002,215.930 233.126,216.090 235.059 M223.438 235.146 C 223.438 236.663,223.465 236.694,224.609 236.465 C 225.673 236.252,225.781 236.325,225.781 237.256 C 225.781 238.135,225.614 238.281,224.609 238.281 L 223.438 238.281 223.438 240.968 C 223.438 243.775,223.989 244.853,225.190 244.392 C 225.636 244.221,225.781 244.450,225.781 245.325 C 225.781 246.382,225.665 246.484,224.457 246.484 C 222.009 246.484,221.312 245.466,221.209 241.738 C 221.125 238.739,221.054 238.479,220.325 238.508 C 219.202 238.551,219.268 237.019,220.410 236.518 C 221.013 236.254,221.328 235.734,221.411 234.863 C 221.614 232.758,223.438 233.013,223.438 235.146 M251.563 235.103 C 251.563 236.488,251.648 236.608,252.604 236.568 C 253.420 236.533,253.660 236.714,253.711 237.402 C 253.764 238.125,253.576 238.281,252.653 238.281 L 251.530 238.281 251.644 241.309 C 251.754 244.245,251.787 244.336,252.734 244.343 C 254.461 244.356,254.096 246.257,252.339 246.405 C 249.924 246.608,249.219 245.519,249.219 241.586 C 249.219 238.321,249.207 238.281,248.242 238.281 C 246.989 238.281,246.914 237.060,248.134 236.518 C 248.616 236.305,249.163 235.567,249.363 234.863 C 249.931 232.857,251.563 233.034,251.563 235.103 M316.016 235.184 C 316.016 236.689,316.073 236.768,317.090 236.649 C 317.953 236.548,318.189 236.696,318.289 237.402 C 318.395 238.152,318.235 238.281,317.198 238.281 L 315.983 238.281 316.097 241.306 C 316.205 244.180,316.260 244.340,317.188 244.529 C 318.837 244.863,318.491 246.262,316.721 246.409 C 314.308 246.610,313.672 245.606,313.672 241.602 C 313.672 238.320,313.660 238.281,312.695 238.281 C 311.908 238.281,311.719 238.087,311.719 237.282 C 311.719 236.732,311.879 236.381,312.074 236.502 C 312.802 236.951,313.658 236.211,313.900 234.923 C 314.303 232.776,316.016 232.987,316.016 235.184 M166.747 236.760 C 168.232 237.278,169.106 238.597,168.302 239.106 C 167.525 239.599,166.954 239.527,166.406 238.867 C 165.811 238.150,164.307 238.102,163.742 238.783 C 163.160 239.483,163.668 240.127,165.043 240.430 C 169.124 241.332,170.298 243.910,167.516 245.859 C 165.855 247.022,162.185 246.311,161.570 244.706 C 161.059 243.375,162.717 242.795,163.688 243.965 C 164.354 244.768,166.552 244.566,166.718 243.686 C 166.810 243.201,166.310 242.883,164.739 242.426 C 161.400 241.455,160.295 239.357,162.207 237.618 C 163.681 236.277,164.770 236.071,166.747 236.760 M177.157 236.944 C 178.548 237.605,179.688 239.501,179.688 241.158 C 179.688 242.156,179.677 242.160,175.879 242.271 L 172.070 242.383 173.127 243.457 C 174.387 244.739,175.860 244.843,176.973 243.730 C 177.820 242.883,179.297 242.993,179.297 243.904 C 179.297 245.786,175.006 247.113,172.728 245.935 C 167.188 243.070,171.523 234.271,177.157 236.944 M188.281 237.177 C 188.281 237.379,188.672 237.271,189.149 236.936 C 190.333 236.107,191.494 236.173,192.721 237.138 L 193.750 237.947 194.779 237.138 C 197.895 234.687,199.914 236.728,200.033 242.451 L 200.112 246.289 199.080 246.413 L 198.047 246.536 198.047 243.190 C 198.047 239.552,197.309 238.018,195.810 238.540 C 194.464 239.008,194.141 239.923,194.141 243.265 L 194.141 246.536 193.066 246.413 C 191.993 246.289,191.992 246.288,191.884 242.773 C 191.771 239.090,191.295 238.077,189.903 238.558 C 188.608 239.006,188.281 239.953,188.281 243.265 L 188.281 246.536 187.207 246.413 L 186.133 246.289 186.022 241.821 C 185.961 239.363,185.991 237.144,186.089 236.889 C 186.294 236.353,188.281 236.615,188.281 237.177 M208.980 236.912 C 210.552 237.725,211.328 238.981,211.328 240.712 L 211.328 242.188 207.813 242.188 C 204.125 242.188,203.737 242.409,205.078 243.750 C 206.083 244.755,207.882 244.753,208.794 243.744 C 209.412 243.062,210.587 242.978,211.262 243.570 C 211.619 243.882,210.377 245.380,209.299 245.938 C 206.616 247.325,203.263 245.949,202.313 243.072 C 200.912 238.825,205.134 234.923,208.980 236.912 M234.218 237.536 C 235.091 238.356,235.156 238.698,235.156 242.451 L 235.156 246.484 234.180 246.484 C 233.556 246.484,233.203 246.264,233.203 245.876 C 233.203 245.326,233.121 245.326,232.335 245.876 C 231.011 246.804,229.033 246.647,227.912 245.526 C 225.883 243.497,227.552 240.625,230.759 240.625 C 232.528 240.625,233.471 239.776,232.633 238.938 C 231.756 238.062,230.641 238.109,229.688 239.063 C 228.155 240.595,226.541 239.430,227.980 237.830 C 229.541 236.094,232.533 235.953,234.218 237.536 M243.956 236.795 C 245.585 237.537,246.094 239.003,246.094 242.949 L 246.094 246.484 244.922 246.484 L 243.750 246.484 243.750 243.047 C 243.750 239.292,243.464 238.672,241.732 238.672 C 240.231 238.672,239.844 239.628,239.844 243.334 L 239.844 246.484 238.672 246.484 L 237.500 246.484 237.500 241.602 L 237.500 236.719 238.672 236.719 C 239.316 236.719,239.844 236.884,239.844 237.086 C 239.844 237.288,240.327 237.202,240.918 236.893 C 242.228 236.210,242.643 236.196,243.956 236.795 M265.959 236.885 C 267.521 237.693,267.969 239.051,267.969 242.987 L 267.969 246.484 266.797 246.484 C 265.992 246.484,265.625 246.292,265.625 245.871 C 265.625 245.313,265.569 245.313,265.011 245.871 C 263.682 247.200,260.171 246.122,259.677 244.233 C 259.193 242.384,260.881 240.960,264.185 240.429 C 265.957 240.144,266.051 239.104,264.357 238.509 C 263.482 238.201,263.131 238.286,262.383 238.989 C 260.868 240.412,259.279 239.920,260.148 238.297 C 261.088 236.540,263.948 235.845,265.959 236.885 M288.103 239.785 C 289.546 243.815,289.535 243.814,290.765 240.037 C 291.803 236.849,291.891 236.719,293.019 236.719 C 294.059 236.719,294.161 236.819,293.915 237.598 C 290.517 248.316,289.374 248.933,286.458 241.623 C 284.293 236.194,284.315 236.397,285.897 236.629 C 286.919 236.779,287.141 237.097,288.103 239.785 M301.354 236.883 C 302.850 237.508,303.906 239.211,303.906 240.996 L 303.906 242.188 300.391 242.188 C 296.622 242.188,295.921 242.647,297.743 243.923 C 298.910 244.740,300.085 244.689,301.253 243.770 C 303.401 242.080,304.578 243.470,302.525 245.272 C 299.546 247.888,295.093 246.119,294.645 242.141 C 294.184 238.052,297.650 235.336,301.354 236.883 M272.266 239.800 C 272.266 243.472,272.988 244.827,274.713 244.394 C 276.006 244.069,276.313 243.087,276.226 239.551 L 276.157 236.719 277.337 236.719 L 278.516 236.719 278.516 241.602 L 278.516 246.484 277.539 246.484 C 276.916 246.484,276.563 246.264,276.563 245.876 C 276.563 245.326,276.480 245.326,275.694 245.876 C 273.542 247.384,270.339 245.847,270.286 243.280 C 270.271 242.572,270.177 240.806,270.076 239.355 L 269.892 236.719 271.079 236.719 L 272.266 236.719 272.266 239.800 M307.986 237.598 L 307.715 238.477 308.668 237.598 C 310.092 236.284,311.328 236.420,311.328 237.891 C 311.328 238.871,311.173 239.063,310.379 239.063 C 308.670 239.063,308.203 239.990,308.203 243.387 L 308.203 246.484 307.031 246.484 L 305.859 246.484 305.859 241.602 L 305.859 236.719 307.058 236.719 C 308.120 236.719,308.225 236.819,307.986 237.598 M173.524 238.889 C 172.116 239.876,172.510 240.234,175.000 240.234 C 177.475 240.234,177.792 239.980,176.629 238.928 C 175.734 238.117,174.646 238.104,173.524 238.889 M204.980 239.160 L 204.102 240.039 205.575 240.161 C 206.386 240.228,207.616 240.228,208.309 240.161 L 209.570 240.039 208.691 239.160 C 208.208 238.677,207.373 238.281,206.836 238.281 C 206.299 238.281,205.464 238.677,204.980 239.160 M297.743 238.889 C 296.335 239.876,296.729 240.234,299.219 240.234 C 301.694 240.234,302.011 239.980,300.848 238.928 C 299.953 238.117,298.864 238.104,297.743 238.889 M230.933 242.257 C 229.516 242.574,229.269 242.768,229.371 243.485 C 229.499 244.381,231.351 244.859,232.293 244.238 C 232.849 243.873,233.424 241.780,232.953 241.839 C 232.768 241.862,231.860 242.050,230.933 242.257 M263.945 242.174 C 262.197 242.513,261.525 243.072,261.850 243.919 C 262.157 244.720,264.210 244.719,265.011 243.917 C 265.495 243.433,265.938 241.653,265.527 241.842 C 265.474 241.867,264.762 242.016,263.945 242.174 " stroke="none" fill="#fbf4eb" fill-rule="evenodd"></path><path id="path2" d="M84.869 144.812 C 85.462 144.901,86.341 144.899,86.822 144.806 C 87.302 144.714,86.816 144.640,85.742 144.643 C 84.668 144.646,84.275 144.722,84.869 144.812 M205.566 170.191 C 205.942 170.289,206.558 170.289,206.934 170.191 C 207.310 170.093,207.002 170.013,206.250 170.013 C 205.498 170.013,205.190 170.093,205.566 170.191 M237.988 170.191 C 238.364 170.289,238.979 170.289,239.355 170.191 C 239.731 170.093,239.424 170.013,238.672 170.013 C 237.920 170.013,237.612 170.093,237.988 170.191 M352.846 182.320 C 354.089 182.398,356.023 182.397,357.143 182.319 C 358.263 182.240,357.246 182.176,354.883 182.177 C 352.520 182.178,351.603 182.243,352.846 182.320 M361.035 182.311 C 361.626 182.401,362.593 182.401,363.184 182.311 C 363.774 182.222,363.291 182.148,362.109 182.148 C 360.928 182.148,360.444 182.222,361.035 182.311 M198.138 185.547 C 198.138 186.299,198.218 186.606,198.316 186.230 C 198.414 185.854,198.414 185.239,198.316 184.863 C 198.218 184.487,198.138 184.795,198.138 185.547 M81.717 191.822 C 79.366 192.324,76.939 193.411,77.206 193.844 C 77.363 194.098,77.279 194.147,76.991 193.969 C 76.722 193.802,75.857 194.113,74.986 194.690 C 73.316 195.795,72.849 195.949,73.279 195.252 C 73.454 194.970,73.386 194.907,73.101 195.084 C 72.849 195.239,72.732 195.510,72.841 195.686 C 73.142 196.174,71.973 196.982,71.441 196.653 C 71.167 196.483,71.075 196.529,71.219 196.762 C 71.535 197.273,70.190 198.506,69.482 198.356 C 69.144 198.284,68.962 198.564,68.991 199.112 C 69.017 199.591,68.897 199.896,68.725 199.789 C 68.554 199.683,68.303 199.775,68.168 199.994 C 68.033 200.212,67.747 200.391,67.532 200.391 C 67.317 200.391,67.267 200.188,67.420 199.940 C 67.594 199.658,67.527 199.595,67.241 199.771 C 66.990 199.927,66.873 200.198,66.982 200.373 C 67.283 200.861,66.113 201.669,65.582 201.340 C 65.304 201.169,65.216 201.216,65.365 201.458 C 65.706 202.010,64.604 202.874,64.019 202.512 C 63.730 202.333,63.653 202.389,63.819 202.657 C 64.174 203.231,62.287 204.448,61.506 204.149 C 61.170 204.020,61.000 204.081,61.126 204.286 C 61.361 204.667,59.460 205.270,54.297 206.452 C 50.744 207.266,47.192 208.550,47.430 208.935 C 47.526 209.090,47.089 209.208,46.460 209.199 C 45.830 209.189,45.359 209.298,45.412 209.442 C 45.552 209.822,43.685 211.725,43.366 211.528 C 43.218 211.436,43.127 211.873,43.164 212.500 C 43.201 213.127,43.099 213.557,42.936 213.457 C 42.381 213.114,41.762 215.934,41.877 218.280 C 41.940 219.568,42.112 220.550,42.258 220.461 C 42.404 220.372,42.635 220.478,42.769 220.697 C 43.349 221.634,46.775 221.156,47.039 220.101 C 47.176 219.555,47.457 219.213,47.663 219.340 C 47.880 219.474,47.929 219.289,47.781 218.902 C 47.607 218.450,47.671 218.322,47.976 218.511 C 48.281 218.699,48.345 218.572,48.171 218.120 C 48.017 217.718,48.070 217.546,48.305 217.691 C 48.526 217.828,48.662 217.560,48.620 217.072 C 48.511 215.833,48.807 215.514,49.524 216.094 C 49.868 216.373,50.032 216.405,49.889 216.165 C 49.555 215.607,50.985 214.291,51.548 214.639 C 51.784 214.785,51.925 214.672,51.865 214.385 C 51.806 214.098,52.061 213.891,52.437 213.921 C 52.824 213.951,53.007 213.796,52.861 213.561 C 52.701 213.302,52.855 213.244,53.277 213.406 C 53.655 213.551,53.848 213.503,53.720 213.297 C 53.596 213.095,54.158 212.824,54.970 212.694 C 55.781 212.563,56.743 212.398,57.106 212.326 C 58.041 212.140,61.371 212.896,61.155 213.245 C 61.057 213.404,61.363 213.521,61.836 213.505 C 62.309 213.490,62.658 213.676,62.613 213.919 C 62.568 214.162,62.827 214.338,63.189 214.310 C 63.552 214.281,63.853 214.521,63.858 214.843 C 63.863 215.165,64.204 215.429,64.615 215.429 C 65.026 215.429,65.444 215.674,65.544 215.972 C 65.670 216.348,65.560 216.415,65.187 216.190 C 64.731 215.916,64.730 215.966,65.181 216.522 C 65.474 216.883,65.869 217.083,66.058 216.966 C 66.248 216.849,66.605 217.197,66.852 217.739 C 67.100 218.282,67.479 218.616,67.696 218.482 C 67.913 218.347,67.970 218.432,67.822 218.672 C 67.675 218.910,67.667 219.552,67.804 220.099 L 68.053 221.094 80.902 221.094 C 90.917 221.094,93.751 220.986,93.756 220.605 C 93.760 220.277,93.892 220.309,94.158 220.703 C 94.449 221.132,94.484 220.986,94.291 220.157 C 94.105 219.359,94.158 219.105,94.470 219.298 C 94.756 219.475,94.829 219.354,94.676 218.956 C 94.482 218.448,94.333 218.427,93.831 218.838 C 93.366 219.219,93.387 219.083,93.922 218.262 C 94.611 217.203,95.235 216.725,94.686 217.676 C 94.531 217.944,95.160 217.319,96.083 216.287 C 97.101 215.148,97.979 214.493,98.315 214.622 C 98.619 214.739,98.767 214.670,98.642 214.468 C 98.337 213.975,99.913 213.164,100.637 213.442 C 100.953 213.564,101.117 213.509,101.001 213.321 C 100.709 212.849,102.163 212.512,104.520 212.505 C 106.579 212.500,110.810 214.240,110.678 215.039 C 110.588 215.581,111.351 216.438,111.719 216.211 C 112.167 215.934,112.999 217.086,112.700 217.571 C 112.558 217.800,112.675 217.940,112.959 217.881 C 113.273 217.816,113.464 218.118,113.446 218.651 C 113.429 219.133,113.491 219.451,113.585 219.358 C 113.906 219.037,114.746 220.113,114.558 220.603 C 114.422 220.957,114.923 221.094,116.357 221.094 C 118.870 221.094,118.889 221.028,118.678 213.320 C 118.513 207.288,117.428 204.029,115.893 204.950 C 115.566 205.147,115.572 205.052,115.915 204.629 C 116.560 203.831,116.106 203.440,115.136 203.959 C 114.623 204.233,114.443 204.238,114.608 203.972 C 114.745 203.751,114.675 203.457,114.453 203.320 C 114.231 203.183,114.136 202.931,114.242 202.760 C 114.348 202.588,114.046 202.117,113.572 201.712 C 112.854 201.100,112.798 201.091,113.238 201.660 C 113.529 202.036,113.592 202.344,113.377 202.344 C 112.803 202.344,112.006 201.265,112.267 200.843 C 112.390 200.643,112.230 200.262,111.910 199.996 C 111.590 199.731,111.328 199.650,111.328 199.817 C 111.328 199.984,110.946 199.786,110.480 199.377 C 110.013 198.968,109.752 198.840,109.900 199.094 C 110.048 199.348,109.986 199.668,109.762 199.807 C 109.539 199.945,109.404 199.825,109.463 199.541 C 109.522 199.256,109.338 199.072,109.053 199.131 C 108.768 199.190,108.649 199.055,108.787 198.831 C 108.925 198.608,109.202 198.526,109.402 198.649 C 109.602 198.773,109.766 198.678,109.766 198.438 C 109.766 198.197,109.985 198.127,110.254 198.282 C 110.538 198.445,110.606 198.414,110.417 198.207 C 110.238 198.012,109.886 197.847,109.635 197.842 C 109.385 197.837,109.206 197.518,109.238 197.133 C 109.271 196.747,109.197 196.532,109.075 196.654 C 108.952 196.777,108.490 196.569,108.046 196.192 C 107.263 195.527,107.256 195.530,107.819 196.289 C 108.351 197.006,108.344 197.028,107.738 196.553 C 107.023 195.994,107.215 194.761,107.951 195.182 C 108.197 195.323,107.972 194.971,107.451 194.399 C 106.454 193.304,105.809 192.943,106.641 193.945 C 107.383 194.840,106.622 194.643,105.506 193.652 C 104.961 193.169,104.727 193.052,104.986 193.392 C 105.363 193.887,105.345 194.010,104.898 194.010 C 104.591 194.010,104.351 193.908,104.365 193.783 C 104.523 192.316,103.034 191.872,96.973 191.574 L 92.188 191.339 92.193 194.791 C 92.198 197.163,92.318 198.059,92.578 197.656 C 92.806 197.304,92.959 197.256,92.963 197.536 C 92.966 197.791,92.793 198.109,92.578 198.242 C 92.363 198.375,92.188 199.176,92.188 200.023 L 92.188 201.563 100.195 201.563 C 106.234 201.563,108.179 201.678,108.105 202.033 C 108.052 202.292,108.213 202.512,108.464 202.521 C 109.628 202.567,109.554 205.234,108.355 206.433 C 106.869 207.919,78.634 207.153,79.984 205.663 C 80.143 205.487,80.059 205.467,79.797 205.617 C 79.348 205.875,79.228 205.587,78.727 203.041 C 78.655 202.672,78.797 202.408,79.044 202.455 C 79.290 202.501,79.438 202.290,79.372 201.985 C 79.269 201.506,79.346 201.506,79.936 201.985 C 80.372 202.339,80.513 202.363,80.325 202.051 C 80.100 201.676,80.758 201.563,83.143 201.563 L 86.254 201.563 86.304 196.481 L 86.354 191.399 84.681 191.473 C 83.761 191.514,82.427 191.671,81.717 191.822 M173.159 193.258 C 174.402 193.336,176.336 193.335,177.456 193.256 C 178.576 193.178,177.559 193.114,175.195 193.115 C 172.832 193.116,171.916 193.180,173.159 193.258 M180.572 193.249 C 181.166 193.339,182.044 193.336,182.525 193.244 C 183.005 193.151,182.520 193.078,181.445 193.080 C 180.371 193.083,179.978 193.159,180.572 193.249 M83.307 193.848 C 83.410 194.116,83.473 194.449,83.446 194.588 C 83.420 194.726,83.707 195.181,84.084 195.597 C 84.654 196.228,84.671 196.354,84.181 196.354 C 83.858 196.354,83.680 196.268,83.786 196.162 C 83.891 196.057,83.782 195.734,83.543 195.446 C 83.303 195.158,83.244 194.922,83.411 194.922 C 83.578 194.922,83.397 194.570,83.008 194.141 C 82.619 193.711,82.485 193.359,82.710 193.359 C 82.935 193.359,83.204 193.579,83.307 193.848 M80.773 194.568 C 80.906 195.257,79.775 195.429,79.021 194.835 C 78.762 194.631,78.366 194.577,78.142 194.716 C 77.918 194.855,77.734 194.782,77.734 194.554 C 77.734 193.996,78.639 194.030,79.219 194.609 C 79.583 194.974,79.796 194.961,80.176 194.552 C 80.505 194.197,80.514 194.110,80.203 194.285 C 79.949 194.427,79.621 194.348,79.473 194.109 C 79.304 193.836,79.474 193.727,79.930 193.815 C 80.329 193.891,80.708 194.231,80.773 194.568 M85.519 195.996 C 85.495 196.934,85.452 196.971,85.178 196.289 C 85.005 195.859,84.940 195.376,85.033 195.215 C 85.364 194.643,85.547 194.936,85.519 195.996 M82.319 196.419 C 82.290 196.813,82.040 197.135,81.764 197.135 C 81.424 197.135,81.385 196.987,81.643 196.676 C 81.853 196.424,81.909 196.102,81.767 195.960 C 81.626 195.819,81.705 195.703,81.942 195.703 C 82.179 195.703,82.349 196.025,82.319 196.419 M104.166 196.315 C 104.295 196.652,104.201 197.127,103.958 197.370 C 103.715 197.613,103.502 197.646,103.486 197.441 C 103.469 197.237,103.397 196.763,103.325 196.387 C 103.162 195.538,103.845 195.480,104.166 196.315 M105.664 196.875 C 105.797 197.090,105.736 197.266,105.528 197.266 C 105.321 197.266,105.249 197.661,105.368 198.145 C 105.487 198.628,105.481 198.932,105.355 198.819 C 104.956 198.464,104.724 196.484,105.081 196.484 C 105.269 196.484,105.531 196.660,105.664 196.875 M80.750 197.969 C 80.583 197.509,80.673 197.369,81.044 197.511 C 81.339 197.624,81.668 197.945,81.775 198.224 C 82.108 199.091,80.249 198.802,79.696 197.900 L 79.186 197.070 80.089 197.852 C 80.847 198.507,80.953 198.526,80.750 197.969 M85.403 198.250 C 85.270 198.595,84.985 198.768,84.768 198.635 C 84.552 198.501,84.375 198.578,84.375 198.805 C 84.375 199.033,84.170 199.219,83.919 199.219 C 83.669 199.219,83.579 199.103,83.721 198.962 C 83.862 198.820,83.782 198.469,83.543 198.180 C 83.223 197.795,83.223 197.656,83.546 197.656 C 83.787 197.656,83.984 197.803,83.984 197.982 C 83.984 198.161,84.248 198.307,84.570 198.307 C 84.893 198.307,85.156 198.044,85.156 197.721 C 85.156 197.399,85.266 197.245,85.400 197.379 C 85.534 197.513,85.535 197.905,85.403 198.250 M94.639 198.719 C 94.405 199.329,94.406 199.329,93.780 198.127 C 93.345 197.293,93.366 197.263,94.078 197.708 C 94.499 197.971,94.752 198.426,94.639 198.719 M107.227 197.656 C 107.094 197.871,107.171 198.047,107.399 198.047 C 107.626 198.047,107.813 197.871,107.813 197.656 C 107.813 197.441,107.959 197.266,108.138 197.266 C 108.317 197.266,108.464 197.529,108.464 197.852 C 108.464 198.174,108.382 198.356,108.282 198.256 C 108.182 198.156,107.788 198.242,107.406 198.446 C 106.852 198.742,106.738 198.680,106.841 198.139 C 107.015 197.236,107.001 197.266,107.250 197.266 C 107.370 197.266,107.359 197.441,107.227 197.656 M77.221 198.535 C 77.245 199.019,77.179 199.193,77.075 198.923 C 76.971 198.653,76.717 198.537,76.510 198.665 C 76.282 198.806,76.334 199.154,76.641 199.546 C 77.094 200.125,77.075 200.138,76.473 199.666 C 75.956 199.261,75.891 198.963,76.194 198.396 C 76.726 197.402,77.168 197.462,77.221 198.535 M83.060 198.927 C 83.019 199.195,82.856 199.622,82.697 199.877 C 82.490 200.207,82.830 200.319,83.879 200.267 C 85.501 200.188,86.332 200.865,84.766 200.989 C 83.271 201.107,81.867 200.477,82.329 199.896 C 82.540 199.631,82.662 199.106,82.601 198.729 C 82.540 198.352,82.635 198.133,82.812 198.242 C 82.989 198.351,83.100 198.660,83.060 198.927 M100.260 198.537 C 100.260 198.808,99.779 199.033,99.181 199.041 C 98.587 199.049,98.189 198.914,98.297 198.740 C 98.404 198.567,98.620 198.504,98.776 198.601 C 98.933 198.697,99.316 198.615,99.628 198.418 C 99.940 198.220,100.210 198.056,100.228 198.053 C 100.246 198.050,100.260 198.267,100.260 198.537 M107.457 199.372 C 106.845 200.110,105.599 200.400,105.599 199.805 C 105.599 199.541,105.901 199.405,106.271 199.502 C 106.641 199.598,107.061 199.486,107.206 199.253 C 107.350 199.019,107.567 198.828,107.688 198.828 C 107.809 198.828,107.705 199.073,107.457 199.372 M73.996 199.653 C 73.849 199.892,73.970 200.241,74.266 200.428 C 74.692 200.698,74.662 200.771,74.121 200.775 C 73.448 200.781,73.189 199.988,73.698 199.479 C 74.109 199.069,74.292 199.175,73.996 199.653 M95.611 200.415 C 95.736 200.877,95.697 200.883,95.391 200.447 C 95.131 200.076,94.939 200.047,94.752 200.349 C 94.605 200.587,94.313 200.781,94.102 200.781 C 93.892 200.781,93.946 200.525,94.223 200.211 C 94.815 199.541,95.398 199.626,95.611 200.415 M72.273 200.967 C 72.002 201.295,71.594 201.563,71.368 201.563 C 71.142 201.563,71.295 201.234,71.709 200.832 C 72.580 199.985,73.004 200.087,72.273 200.967 M75.484 204.504 C 75.380 205.048,74.969 205.667,74.570 205.880 C 73.992 206.190,73.892 206.148,74.073 205.675 C 74.198 205.349,74.458 205.180,74.650 205.299 C 74.843 205.418,75.000 205.182,75.000 204.776 C 75.000 204.156,75.303 203.516,75.597 203.516 C 75.639 203.516,75.588 203.960,75.484 204.504 M116.029 206.802 C 116.569 207.507,116.551 207.523,115.712 207.076 C 115.222 206.815,114.932 206.423,115.067 206.204 C 115.202 205.986,115.345 205.863,115.384 205.931 C 115.423 205.999,115.713 206.391,116.029 206.802 M127.488 209.766 C 127.488 212.021,127.553 212.944,127.632 211.816 C 127.711 210.688,127.711 208.843,127.632 207.715 C 127.553 206.587,127.488 207.510,127.488 209.766 M78.157 208.360 C 77.807 208.781,77.819 208.950,78.206 209.090 C 78.484 209.189,77.935 209.250,76.986 209.225 C 75.532 209.187,73.988 208.203,75.381 208.203 C 75.627 208.203,75.732 208.357,75.616 208.545 C 75.500 208.733,75.838 208.887,76.367 208.887 C 76.928 208.887,77.226 208.719,77.081 208.485 C 76.943 208.262,77.022 208.199,77.256 208.344 C 77.490 208.489,77.791 208.428,77.926 208.209 C 78.061 207.991,78.270 207.813,78.391 207.813 C 78.512 207.813,78.407 208.059,78.157 208.360 M67.480 212.598 C 66.804 213.616,66.251 213.625,66.117 212.618 C 66.038 212.030,66.076 212.042,66.348 212.687 C 66.666 213.439,66.687 213.436,67.140 212.589 C 67.396 212.110,67.709 211.719,67.835 211.719 C 67.961 211.719,67.801 212.114,67.480 212.598 M279.458 218.359 C 279.458 222.119,279.516 223.657,279.588 221.777 C 279.659 219.897,279.659 216.821,279.588 214.941 C 279.516 213.062,279.458 214.600,279.458 218.359 M71.952 212.447 C 72.263 212.003,72.300 212.007,72.177 212.466 C 72.095 212.769,71.742 213.060,71.393 213.111 C 70.955 213.175,70.832 213.010,70.997 212.579 C 71.175 212.116,71.281 212.087,71.408 212.466 C 71.547 212.883,71.649 212.880,71.952 212.447 M80.520 213.805 C 80.281 214.094,80.215 214.474,80.374 214.649 C 80.534 214.825,80.444 214.843,80.176 214.688 C 79.898 214.528,79.688 214.613,79.688 214.886 C 79.688 215.149,79.571 215.248,79.429 215.107 C 79.288 214.965,79.491 214.496,79.881 214.065 C 80.667 213.196,81.208 212.976,80.520 213.805 M86.561 213.911 C 86.385 214.368,86.486 214.476,86.930 214.306 C 87.281 214.171,87.439 214.236,87.302 214.458 C 87.072 214.829,85.938 215.015,85.938 214.680 C 85.938 214.304,86.427 213.281,86.607 213.281 C 86.714 213.281,86.694 213.564,86.561 213.911 M84.611 214.910 C 84.801 215.217,84.681 215.285,84.244 215.118 C 83.873 214.975,83.594 215.059,83.594 215.312 C 83.594 215.556,83.488 215.650,83.359 215.521 C 83.067 215.228,83.520 214.453,83.984 214.453 C 84.174 214.453,84.456 214.659,84.611 214.910 M36.069 217.578 C 36.069 219.189,36.138 219.849,36.222 219.043 C 36.306 218.237,36.306 216.919,36.222 216.113 C 36.138 215.308,36.069 215.967,36.069 217.578 M295.462 220.508 C 295.462 223.086,295.526 224.090,295.602 222.739 C 295.679 221.387,295.678 219.278,295.601 218.051 C 295.523 216.824,295.461 217.930,295.462 220.508 M103.906 218.438 C 102.939 218.650,101.822 219.115,101.424 219.471 C 101.025 219.826,100.587 220.117,100.450 220.117 C 100.313 220.117,100.255 220.355,100.322 220.645 C 100.397 220.974,100.263 221.061,99.966 220.877 C 99.699 220.713,99.589 220.745,99.716 220.950 C 99.841 221.153,99.997 222.396,100.062 223.712 C 100.127 225.029,100.292 226.037,100.429 225.953 C 100.733 225.765,102.025 227.141,101.778 227.389 C 101.568 227.599,105.627 227.492,107.030 227.251 C 107.671 227.141,108.005 226.828,108.006 226.335 C 108.007 225.923,108.190 225.617,108.413 225.656 C 108.661 225.699,108.812 224.689,108.803 223.052 C 108.795 221.581,108.714 220.453,108.623 220.544 C 108.531 220.635,108.053 220.331,107.560 219.868 C 106.775 219.131,106.577 219.094,105.968 219.572 C 105.336 220.068,105.322 220.056,105.810 219.434 C 106.264 218.854,106.264 218.749,105.810 218.744 C 105.388 218.739,105.399 218.657,105.859 218.359 C 106.553 217.911,106.251 217.924,103.906 218.438 M56.445 219.345 C 55.371 219.643,54.438 219.895,54.371 219.905 C 54.305 219.914,54.377 219.702,54.532 219.434 C 54.695 219.150,54.664 219.082,54.457 219.271 C 54.262 219.450,54.099 219.714,54.096 219.857 C 54.082 220.429,53.440 221.093,53.102 220.885 C 52.904 220.762,52.858 220.962,53.001 221.333 C 53.153 221.729,53.101 221.906,52.874 221.766 C 52.525 221.550,52.587 222.278,53.256 226.276 C 53.320 226.655,53.606 227.182,53.892 227.448 C 54.305 227.830,54.355 227.829,54.136 227.441 C 53.794 226.835,53.990 226.830,55.266 227.412 C 56.014 227.752,56.144 227.959,55.773 228.218 C 55.467 228.432,55.652 228.448,56.250 228.262 C 56.787 228.094,57.693 227.951,58.263 227.943 C 58.834 227.936,59.235 227.823,59.154 227.693 C 58.908 227.294,60.779 225.755,61.127 226.071 C 61.306 226.234,61.339 226.167,61.199 225.922 C 61.059 225.677,61.096 224.671,61.280 223.685 C 61.464 222.700,61.481 221.976,61.317 222.077 C 60.948 222.305,60.469 221.144,60.747 220.695 C 60.954 220.360,60.276 219.786,59.570 219.699 C 59.355 219.672,58.950 219.623,58.668 219.591 C 58.387 219.558,58.266 219.355,58.398 219.141 C 58.531 218.926,58.586 218.762,58.519 218.776 C 58.453 218.791,57.520 219.047,56.445 219.345 M45.117 220.030 C 45.859 220.212,45.857 220.224,45.067 220.267 C 44.610 220.292,43.995 220.005,43.700 219.629 C 43.234 219.034,43.240 219.003,43.750 219.392 C 44.072 219.637,44.688 219.924,45.117 220.030 M302.087 222.070 C 302.088 223.789,302.157 224.444,302.240 223.525 C 302.322 222.606,302.321 221.200,302.237 220.400 C 302.153 219.600,302.086 220.352,302.087 222.070 M332.550 222.461 C 332.552 223.965,332.622 224.532,332.707 223.722 C 332.792 222.911,332.790 221.681,332.704 220.987 C 332.618 220.294,332.548 220.957,332.550 222.461 M44.244 221.765 C 44.837 221.854,45.716 221.852,46.197 221.759 C 46.677 221.667,46.191 221.593,45.117 221.596 C 44.043 221.599,43.650 221.675,44.244 221.765 M74.121 221.777 C 77.827 221.841,83.892 221.841,87.598 221.777 C 91.304 221.713,88.271 221.660,80.859 221.660 C 73.447 221.660,70.415 221.713,74.121 221.777 M115.144 221.767 C 115.846 221.854,116.900 221.853,117.487 221.763 C 118.074 221.674,117.500 221.603,116.211 221.605 C 114.922 221.608,114.442 221.681,115.144 221.767 M70.020 226.852 C 71.470 226.927,73.843 226.927,75.293 226.852 C 76.743 226.777,75.557 226.716,72.656 226.716 C 69.756 226.716,68.569 226.777,70.020 226.852 M82.150 226.854 C 84.471 226.923,88.163 226.923,90.353 226.854 C 92.544 226.784,90.645 226.728,86.133 226.728 C 81.621 226.728,79.829 226.785,82.150 226.854 M115.337 226.843 C 115.931 226.933,116.810 226.930,117.291 226.837 C 117.771 226.745,117.285 226.671,116.211 226.674 C 115.137 226.677,114.744 226.753,115.337 226.843 M174.128 240.517 C 174.830 240.604,175.885 240.603,176.472 240.513 C 177.059 240.424,176.484 240.353,175.195 240.355 C 173.906 240.358,173.426 240.431,174.128 240.517 M206.744 240.515 C 207.337 240.604,208.216 240.602,208.697 240.509 C 209.177 240.417,208.691 240.343,207.617 240.346 C 206.543 240.349,206.150 240.425,206.744 240.515 M298.347 240.517 C 299.049 240.604,300.104 240.603,300.691 240.513 C 301.278 240.424,300.703 240.353,299.414 240.355 C 298.125 240.358,297.645 240.431,298.347 240.517 M239.578 243.359 C 239.578 244.756,239.649 245.327,239.736 244.629 C 239.822 243.931,239.822 242.788,239.736 242.090 C 239.649 241.392,239.578 241.963,239.578 243.359 M174.512 242.083 C 175.425 242.165,176.919 242.165,177.832 242.083 C 178.745 242.001,177.998 241.933,176.172 241.933 C 174.346 241.933,173.599 242.001,174.512 242.083 M206.359 242.084 C 207.386 242.165,208.968 242.164,209.875 242.082 C 210.782 242.000,209.941 241.934,208.008 241.936 C 206.074 241.937,205.332 242.004,206.359 242.084 M298.535 242.081 C 299.341 242.166,300.659 242.166,301.465 242.081 C 302.271 241.997,301.611 241.928,300.000 241.928 C 298.389 241.928,297.729 241.997,298.535 242.081 M267.685 243.750 C 267.685 244.717,267.761 245.112,267.854 244.629 C 267.947 244.146,267.947 243.354,267.854 242.871 C 267.761 242.388,267.685 242.783,267.685 243.750 M82.916 244.812 C 83.509 244.901,84.388 244.899,84.869 244.806 C 85.349 244.714,84.863 244.640,83.789 244.643 C 82.715 244.646,82.322 244.722,82.916 244.812 " stroke="none" fill="#9fbb6b" fill-rule="evenodd"></path><path id="path3" d="M79.688 191.896 C 76.246 193.085,74.465 194.207,68.750 198.784 C 63.088 203.318,61.062 204.441,57.031 205.275 C 46.158 207.525,41.856 210.653,41.478 216.582 C 41.234 220.414,41.968 221.484,44.840 221.484 L 47.082 221.484 47.744 219.622 C 50.793 211.035,62.659 210.551,66.721 218.848 L 68.011 221.484 81.014 221.484 L 94.017 221.484 94.468 219.978 C 97.180 210.928,109.824 210.750,113.664 219.709 L 114.425 221.484 116.546 221.484 C 119.214 221.484,119.141 221.688,119.141 214.284 C 119.141 206.813,119.022 206.477,115.267 203.371 C 113.606 201.997,111.267 199.570,110.069 197.978 C 105.556 191.982,104.085 191.228,96.875 191.218 L 91.992 191.211 91.992 196.484 L 91.992 201.758 100.195 201.953 L 108.398 202.148 108.520 203.837 C 108.730 206.755,109.302 206.641,94.458 206.641 C 80.329 206.641,79.909 206.587,79.498 204.714 C 79.014 202.511,79.702 201.998,83.306 201.871 L 86.523 201.758 86.523 196.484 L 86.523 191.211 84.375 191.115 C 82.947 191.051,81.375 191.313,79.688 191.896 M86.304 196.481 L 86.254 201.563 83.068 201.609 C 81.316 201.634,79.751 201.634,79.590 201.609 C 79.429 201.583,79.341 201.782,79.395 202.051 C 79.448 202.319,79.298 202.503,79.060 202.460 C 78.403 202.340,79.060 205.341,79.893 206.261 C 80.561 206.999,81.152 207.031,94.173 207.031 C 109.219 207.031,108.713 207.118,109.211 204.464 C 109.725 201.723,109.224 201.563,100.135 201.563 L 92.188 201.563 92.188 200.023 C 92.188 199.176,92.363 198.375,92.578 198.242 C 92.793 198.109,92.966 197.791,92.963 197.536 C 92.959 197.256,92.806 197.304,92.578 197.656 C 92.318 198.059,92.198 197.163,92.193 194.791 L 92.188 191.339 96.973 191.574 C 101.724 191.807,104.297 192.308,104.297 192.999 C 104.297 193.197,104.429 193.318,104.590 193.267 C 105.134 193.097,107.445 195.081,107.260 195.561 C 107.160 195.822,107.375 196.269,107.738 196.553 C 108.332 197.018,108.344 197.001,107.862 196.387 C 107.567 196.011,107.430 195.703,107.557 195.703 C 107.684 195.703,108.479 196.638,109.323 197.781 C 110.167 198.923,111.710 200.714,112.753 201.759 C 113.795 202.804,114.611 203.782,114.566 203.932 C 114.521 204.082,114.784 204.182,115.152 204.153 C 115.520 204.125,115.772 204.334,115.713 204.619 C 115.654 204.903,115.774 205.032,115.980 204.905 C 117.421 204.014,118.517 207.432,118.678 213.320 C 118.889 221.028,118.870 221.094,116.357 221.094 C 114.751 221.094,114.413 220.981,114.594 220.508 C 114.718 220.186,114.666 219.922,114.479 219.922 C 114.292 219.922,113.961 219.412,113.744 218.788 C 111.408 212.088,101.959 210.490,96.566 215.883 C 95.426 217.023,94.600 217.783,94.730 217.572 C 95.296 216.657,94.554 217.290,93.922 218.262 C 93.314 219.197,93.308 219.266,93.877 218.800 C 94.649 218.167,94.666 218.247,94.102 219.864 L 93.674 221.094 80.864 221.094 L 68.053 221.094 67.804 220.099 C 67.667 219.552,67.676 218.893,67.824 218.634 C 67.973 218.376,67.956 218.289,67.786 218.442 C 67.617 218.594,67.014 218.027,66.445 217.181 C 62.909 211.915,56.026 210.866,50.781 214.794 C 50.029 215.357,49.238 215.818,49.023 215.819 C 48.809 215.820,48.632 215.996,48.630 216.211 C 48.628 216.426,48.189 217.609,47.653 218.841 L 46.680 221.080 44.872 221.087 C 42.685 221.095,42.235 220.633,41.931 218.064 C 41.690 216.031,42.371 213.107,42.996 213.493 C 43.191 213.614,43.245 213.437,43.115 213.099 C 42.792 212.257,46.241 208.808,47.084 209.131 C 47.421 209.260,47.598 209.206,47.477 209.010 C 47.196 208.556,50.513 207.316,54.297 206.461 C 60.394 205.082,62.392 204.277,65.516 201.937 C 67.178 200.692,68.701 199.774,68.900 199.897 C 69.099 200.020,69.150 199.941,69.014 199.721 C 68.553 198.975,76.186 193.471,76.991 193.969 C 77.279 194.147,77.363 194.098,77.206 193.844 C 76.744 193.096,81.403 191.618,84.681 191.473 L 86.354 191.399 86.304 196.481 M83.008 194.141 C 83.397 194.570,83.578 194.922,83.411 194.922 C 83.244 194.922,83.303 195.158,83.543 195.446 C 83.782 195.734,83.891 196.057,83.786 196.162 C 83.680 196.268,83.858 196.354,84.181 196.354 C 84.671 196.354,84.654 196.228,84.084 195.597 C 83.707 195.181,83.420 194.726,83.446 194.588 C 83.542 194.083,83.109 193.359,82.710 193.359 C 82.485 193.359,82.619 193.711,83.008 194.141 M79.473 194.109 C 79.621 194.348,79.949 194.427,80.203 194.285 C 80.514 194.110,80.505 194.197,80.176 194.552 C 79.796 194.961,79.583 194.974,79.219 194.609 C 78.639 194.030,77.734 193.996,77.734 194.554 C 77.734 194.782,77.918 194.855,78.142 194.716 C 78.366 194.577,78.762 194.631,79.021 194.835 C 79.280 195.039,79.807 195.201,80.192 195.194 C 81.114 195.179,80.890 193.999,79.930 193.815 C 79.474 193.727,79.304 193.836,79.473 194.109 M85.033 195.215 C 84.940 195.376,85.005 195.859,85.178 196.289 C 85.452 196.971,85.495 196.934,85.519 195.996 C 85.547 194.936,85.364 194.643,85.033 195.215 M81.767 195.960 C 81.909 196.102,81.853 196.424,81.643 196.676 C 81.385 196.987,81.424 197.135,81.764 197.135 C 82.040 197.135,82.290 196.813,82.319 196.419 C 82.349 196.025,82.179 195.703,81.942 195.703 C 81.705 195.703,81.626 195.819,81.767 195.960 M103.325 196.387 C 103.397 196.763,103.469 197.237,103.486 197.441 C 103.502 197.646,103.715 197.613,103.958 197.370 C 104.439 196.889,104.158 195.703,103.562 195.703 C 103.360 195.703,103.253 196.011,103.325 196.387 M104.932 197.550 C 105.039 198.136,105.229 198.707,105.355 198.819 C 105.481 198.932,105.487 198.628,105.368 198.145 C 105.249 197.661,105.321 197.266,105.528 197.266 C 105.736 197.266,105.797 197.090,105.664 196.875 C 105.185 196.100,104.743 196.507,104.932 197.550 M79.696 197.900 C 80.249 198.802,82.108 199.091,81.775 198.224 C 81.668 197.945,81.339 197.624,81.044 197.511 C 80.673 197.369,80.583 197.509,80.750 197.969 C 80.953 198.526,80.847 198.507,80.089 197.852 L 79.186 197.070 79.696 197.900 M85.156 197.721 C 85.156 198.044,84.893 198.307,84.570 198.307 C 84.248 198.307,83.984 198.161,83.984 197.982 C 83.984 197.803,83.787 197.656,83.546 197.656 C 83.223 197.656,83.223 197.795,83.543 198.180 C 83.782 198.469,83.862 198.820,83.721 198.962 C 83.579 199.103,83.669 199.219,83.919 199.219 C 84.170 199.219,84.375 199.033,84.375 198.805 C 84.375 198.578,84.552 198.501,84.768 198.635 C 85.207 198.906,85.783 197.762,85.400 197.379 C 85.266 197.245,85.156 197.399,85.156 197.721 M93.780 198.127 C 94.406 199.329,94.405 199.329,94.639 198.719 C 94.752 198.426,94.499 197.971,94.078 197.708 C 93.366 197.263,93.345 197.293,93.780 198.127 M107.001 197.363 C 106.656 198.491,106.767 198.788,107.406 198.446 C 107.788 198.242,108.182 198.156,108.282 198.256 C 108.382 198.356,108.464 198.174,108.464 197.852 C 108.464 197.529,108.317 197.266,108.138 197.266 C 107.959 197.266,107.813 197.441,107.813 197.656 C 107.813 197.871,107.626 198.047,107.399 198.047 C 107.171 198.047,107.094 197.871,107.227 197.656 C 107.359 197.441,107.370 197.266,107.250 197.266 C 107.130 197.266,107.018 197.310,107.001 197.363 M76.194 198.396 C 75.891 198.963,75.956 199.261,76.473 199.666 C 77.075 200.138,77.094 200.125,76.641 199.546 C 76.334 199.154,76.282 198.806,76.510 198.665 C 76.717 198.537,76.971 198.653,77.075 198.923 C 77.179 199.193,77.245 199.019,77.221 198.535 C 77.168 197.462,76.726 197.402,76.194 198.396 M82.601 198.729 C 82.662 199.106,82.540 199.631,82.329 199.896 C 81.867 200.477,83.271 201.107,84.766 200.989 C 86.332 200.865,85.501 200.188,83.879 200.267 C 82.830 200.319,82.490 200.207,82.697 199.877 C 83.125 199.191,83.176 198.467,82.812 198.242 C 82.635 198.133,82.540 198.352,82.601 198.729 M99.628 198.418 C 99.316 198.615,98.933 198.697,98.776 198.601 C 98.620 198.504,98.404 198.567,98.297 198.740 C 98.189 198.914,98.587 199.049,99.181 199.041 C 99.779 199.033,100.260 198.808,100.260 198.537 C 100.260 198.267,100.246 198.050,100.228 198.053 C 100.210 198.056,99.940 198.220,99.628 198.418 M107.206 199.253 C 107.061 199.486,106.641 199.598,106.271 199.502 C 105.901 199.405,105.599 199.541,105.599 199.805 C 105.599 200.400,106.845 200.110,107.457 199.372 C 107.705 199.073,107.809 198.828,107.688 198.828 C 107.567 198.828,107.350 199.019,107.206 199.253 M73.698 199.479 C 73.189 199.988,73.448 200.781,74.121 200.775 C 74.662 200.771,74.692 200.698,74.266 200.428 C 73.970 200.241,73.849 199.892,73.996 199.653 C 74.292 199.175,74.109 199.069,73.698 199.479 M94.223 200.211 C 93.946 200.525,93.892 200.781,94.102 200.781 C 94.313 200.781,94.605 200.587,94.752 200.349 C 94.939 200.047,95.131 200.076,95.391 200.447 C 95.697 200.883,95.736 200.877,95.611 200.415 C 95.398 199.626,94.815 199.541,94.223 200.211 M71.709 200.832 C 71.295 201.234,71.142 201.563,71.368 201.563 C 71.819 201.563,72.861 200.454,72.614 200.236 C 72.530 200.162,72.123 200.430,71.709 200.832 M75.260 203.776 C 75.117 203.919,75.000 204.369,75.000 204.776 C 75.000 205.182,74.843 205.418,74.650 205.299 C 74.458 205.180,74.198 205.349,74.073 205.675 C 73.892 206.148,73.992 206.190,74.570 205.880 C 74.969 205.667,75.380 205.048,75.484 204.504 C 75.686 203.445,75.664 203.372,75.260 203.776 M115.067 206.204 C 114.932 206.423,115.222 206.815,115.712 207.076 C 116.551 207.523,116.569 207.507,116.029 206.802 C 115.713 206.391,115.423 205.999,115.384 205.931 C 115.345 205.863,115.202 205.986,115.067 206.204 M77.926 208.209 C 77.791 208.428,77.490 208.489,77.256 208.344 C 77.022 208.199,76.943 208.262,77.081 208.485 C 77.226 208.719,76.928 208.887,76.367 208.887 C 75.838 208.887,75.500 208.733,75.616 208.545 C 75.732 208.357,75.627 208.203,75.381 208.203 C 73.988 208.203,75.532 209.187,76.986 209.225 C 77.935 209.250,78.484 209.189,78.206 209.090 C 77.819 208.950,77.807 208.781,78.157 208.360 C 78.407 208.059,78.512 207.813,78.391 207.813 C 78.270 207.813,78.061 207.991,77.926 208.209 M67.140 212.589 C 66.687 213.436,66.666 213.439,66.348 212.687 C 66.076 212.042,66.038 212.030,66.117 212.618 C 66.251 213.625,66.804 213.616,67.480 212.598 C 67.801 212.114,67.961 211.719,67.835 211.719 C 67.709 211.719,67.396 212.110,67.140 212.589 M70.997 212.579 C 70.832 213.010,70.955 213.175,71.393 213.111 C 71.742 213.060,72.095 212.769,72.177 212.466 C 72.300 212.007,72.263 212.003,71.952 212.447 C 71.649 212.880,71.547 212.883,71.408 212.466 C 71.281 212.087,71.175 212.116,70.997 212.579 M79.881 214.065 C 79.491 214.496,79.288 214.965,79.429 215.107 C 79.571 215.248,79.688 215.149,79.688 214.886 C 79.688 214.613,79.898 214.528,80.176 214.688 C 80.444 214.843,80.534 214.825,80.374 214.649 C 80.215 214.474,80.281 214.094,80.520 213.805 C 81.208 212.976,80.667 213.196,79.881 214.065 M86.175 213.899 C 86.044 214.239,85.938 214.591,85.938 214.680 C 85.938 215.015,87.072 214.829,87.302 214.458 C 87.439 214.236,87.281 214.171,86.930 214.306 C 86.486 214.476,86.385 214.368,86.561 213.911 C 86.694 213.564,86.714 213.281,86.607 213.281 C 86.500 213.281,86.305 213.559,86.175 213.899 M83.382 214.870 C 83.241 215.099,83.230 215.392,83.359 215.521 C 83.488 215.650,83.594 215.556,83.594 215.312 C 83.594 215.059,83.873 214.975,84.244 215.118 C 84.681 215.285,84.801 215.217,84.611 214.910 C 84.259 214.340,83.721 214.323,83.382 214.870 M102.044 218.449 C 100.697 219.098,99.479 221.358,99.479 223.210 C 99.479 228.451,106.378 230.054,108.797 225.376 C 110.972 221.169,106.313 216.391,102.044 218.449 M105.642 218.600 C 106.162 218.800,106.185 218.950,105.772 219.479 C 105.326 220.050,105.347 220.060,105.968 219.572 C 106.940 218.809,108.450 220.260,108.792 222.283 C 109.560 226.827,104.109 229.586,101.074 226.190 C 98.052 222.807,101.533 217.023,105.642 218.600 M54.765 219.383 C 52.227 220.674,51.503 224.331,53.349 226.525 C 56.424 230.180,62.070 227.830,61.587 223.097 C 61.247 219.754,57.762 217.857,54.765 219.383 M43.700 219.629 C 43.995 220.005,44.610 220.292,45.067 220.267 C 45.857 220.224,45.859 220.212,45.117 220.030 C 44.688 219.924,44.072 219.637,43.750 219.392 C 43.240 219.003,43.234 219.034,43.700 219.629 M59.211 219.877 C 63.759 222.650,59.894 229.801,55.154 227.383 C 51.844 225.694,51.886 221.155,55.226 219.702 C 56.893 218.976,57.799 219.016,59.211 219.877 " stroke="none" fill="#a8c37b" fill-rule="evenodd"></path><path id="path4" d="M168.262 158.105 C 171.753 158.170,177.466 158.170,180.957 158.105 C 184.448 158.040,181.592 157.987,174.609 157.987 C 167.627 157.987,164.771 158.040,168.262 158.105 M263.357 158.104 C 265.655 158.173,269.522 158.173,271.951 158.104 C 274.380 158.036,272.500 157.979,267.773 157.979 C 263.047 157.979,261.060 158.035,263.357 158.104 M330.268 158.301 C 329.959 159.157,329.871 174.153,330.176 173.964 C 330.337 173.864,330.469 170.283,330.469 166.007 L 330.469 158.232 334.082 158.104 L 337.695 157.975 334.070 157.894 C 331.463 157.835,330.395 157.950,330.268 158.301 M337.682 179.297 C 337.682 190.791,337.732 195.493,337.793 189.746 C 337.854 183.999,337.854 174.595,337.793 168.848 C 337.732 163.101,337.682 167.803,337.682 179.297 M268.665 164.742 C 269.801 164.821,271.558 164.820,272.572 164.740 C 273.585 164.660,272.656 164.595,270.508 164.596 C 268.359 164.597,267.530 164.662,268.665 164.742 M289.153 171.094 C 289.153 171.846,289.234 172.153,289.332 171.777 C 289.430 171.401,289.430 170.786,289.332 170.410 C 289.234 170.034,289.153 170.342,289.153 171.094 M320.410 170.191 C 320.786 170.289,321.401 170.289,321.777 170.191 C 322.153 170.093,321.846 170.013,321.094 170.013 C 320.342 170.013,320.034 170.093,320.410 170.191 M295.098 185.352 C 295.098 193.086,295.150 196.305,295.214 192.506 C 295.278 188.706,295.278 182.378,295.214 178.443 C 295.151 174.508,295.098 177.617,295.098 185.352 M173.751 175.682 C 175.965 175.752,179.480 175.752,181.564 175.682 C 183.647 175.611,181.836 175.554,177.539 175.555 C 173.242 175.555,171.538 175.612,173.751 175.682 M205.566 176.832 C 205.942 176.930,206.558 176.930,206.934 176.832 C 207.310 176.734,207.002 176.653,206.250 176.653 C 205.498 176.653,205.190 176.734,205.566 176.832 M307.143 185.352 C 307.146 186.426,307.222 186.819,307.312 186.225 C 307.401 185.631,307.399 184.752,307.306 184.272 C 307.214 183.792,307.140 184.277,307.143 185.352 M268.066 184.660 C 268.872 184.744,270.190 184.744,270.996 184.660 C 271.802 184.575,271.143 184.506,269.531 184.506 C 267.920 184.506,267.261 184.575,268.066 184.660 M129.805 189.063 C 129.805 190.244,129.878 190.728,129.967 190.137 C 130.057 189.546,130.057 188.579,129.967 187.988 C 129.878 187.397,129.805 187.881,129.805 189.063 M41.903 190.234 C 41.903 191.201,41.979 191.597,42.073 191.113 C 42.166 190.630,42.166 189.839,42.073 189.355 C 41.979 188.872,41.903 189.268,41.903 190.234 M250.161 218.359 C 250.161 222.119,250.219 223.657,250.291 221.777 C 250.362 219.897,250.362 216.821,250.291 214.941 C 250.219 213.062,250.161 214.600,250.161 218.359 M228.614 213.867 C 228.618 214.727,228.698 215.032,228.792 214.546 C 228.885 214.060,228.882 213.357,228.784 212.984 C 228.686 212.610,228.610 213.008,228.614 213.867 M127.482 217.383 C 127.481 219.316,127.547 220.157,127.629 219.250 C 127.711 218.343,127.712 216.761,127.631 215.734 C 127.551 214.707,127.484 215.449,127.482 217.383 M228.641 219.922 C 228.641 221.318,228.712 221.890,228.798 221.191 C 228.885 220.493,228.885 219.351,228.798 218.652 C 228.712 217.954,228.641 218.525,228.641 219.922 M185.293 221.875 C 185.293 223.701,185.360 224.448,185.442 223.535 C 185.525 222.622,185.525 221.128,185.442 220.215 C 185.360 219.302,185.293 220.049,185.293 221.875 M270.039 222.266 C 270.039 223.447,270.112 223.931,270.202 223.340 C 270.291 222.749,270.291 221.782,270.202 221.191 C 270.112 220.601,270.039 221.084,270.039 222.266 M179.018 223.242 C 179.021 224.316,179.097 224.709,179.187 224.116 C 179.276 223.522,179.274 222.643,179.181 222.163 C 179.089 221.682,179.015 222.168,179.018 223.242 M251.263 235.547 C 251.263 236.299,251.343 236.606,251.441 236.230 C 251.539 235.854,251.539 235.239,251.441 234.863 C 251.343 234.487,251.263 234.795,251.263 235.547 M315.716 235.547 C 315.716 236.299,315.796 236.606,315.894 236.230 C 315.993 235.854,315.993 235.239,315.894 234.863 C 315.796 234.487,315.716 234.795,315.716 235.547 M186.107 236.840 C 185.999 237.122,185.962 239.363,186.024 241.821 L 186.137 246.289 186.330 241.308 C 186.521 236.391,186.493 235.834,186.107 236.840 M270.020 238.086 C 270.025 238.945,270.105 239.251,270.198 238.765 C 270.292 238.279,270.288 237.576,270.190 237.202 C 270.092 236.829,270.016 237.227,270.020 238.086 M276.289 238.672 C 276.289 239.854,276.362 240.337,276.452 239.746 C 276.541 239.155,276.541 238.188,276.452 237.598 C 276.362 237.007,276.289 237.490,276.289 238.672 M251.303 241.016 C 251.303 242.627,251.372 243.286,251.456 242.480 C 251.541 241.675,251.541 240.356,251.456 239.551 C 251.372 238.745,251.303 239.404,251.303 241.016 M315.756 241.016 C 315.756 242.627,315.825 243.286,315.910 242.480 C 315.994 241.675,315.994 240.356,315.910 239.551 C 315.825 238.745,315.756 239.404,315.756 241.016 M221.219 241.406 C 221.219 242.803,221.290 243.374,221.376 242.676 C 221.463 241.978,221.463 240.835,221.376 240.137 C 221.290 239.438,221.219 240.010,221.219 241.406 M191.933 242.969 C 191.933 244.795,192.001 245.542,192.083 244.629 C 192.165 243.716,192.165 242.222,192.083 241.309 C 192.001 240.396,191.933 241.143,191.933 242.969 " stroke="none" fill="#a8c4b6" fill-rule="evenodd"></path></g></svg>